<svg id="Layer_1" xmlns="http://www.w3.org/2000/svg" viewBox="0 0 30.7 30.7"><style>.st0{fill:#a1a1a1}</style><path class="st0" d="M23 13.6l-7.4 9.1c-.1.1-.3.1-.3 0l-7.4-9.1c-.1-.1-.1-.2 0-.3l2.4-3.3c0-.1.1-.1.2-.1h10.1c.1 0 .1 0 .2.1l2.4 3.4m-7.8 8.7l7.1-8.8-2.2-3.1h-9.8l-2.2 3.1 7.1 8.8z"/><path class="st0" d="M17.1 13.2c.1 0 .2.1.2.2s-.1.2-.2.2H7.9c-.1 0-.2-.1-.2-.2s.1-.2.2-.2h9.2zm5.7 0c.1 0 .2.1.2.2s-.1.2-.2.2h-.9c-.1 0-.2-.1-.2-.2s.1-.2.2-.2h.9z"/><path class="st0" d="M10.1 10.1c0-.1 0-.3.1-.3s.3 0 .3.1l5 12.5c0 .1 0 .3-.1.3s-.3 0-.3-.1l-5-12.5z"/><path class="st0" d="M18 15.5c0-.1.2-.2.3-.1.1 0 .2.2.1.3l-2.8 7c0 .1-.2.2-.3.1-.1 0-.2-.2-.1-.3l2.8-7zm2.2-5.5c0-.1.2-.2.3-.1.1 0 .2.2.1.3l-.4 1c0 .1-.2.2-.3.1-.1 0-.2-.2-.1-.3l.4-1zm-8.3 3.6c-.1.1-.2.1-.3 0-.1-.1-.1-.2 0-.3l3.6-3.4c.1-.1.2-.1.3 0 .1.1.1.2 0 .3l-3.6 3.4z"/><path class="st0" d="M17.9 12.1c.1.1.1.2 0 .3-.1.1-.2.1-.3 0l-2.4-2.2c-.1-.1-.1-.2 0-.3.1-.1.2-.1.3 0l2.4 2.2zm1.8.9l-.3-.5-.2.5-.1.1-.5.3.5.3.1.1.3.5.3-.5.1-.1.5-.3-.5-.3c-.1 0-.1 0-.2-.1m0-1.1l.4.9.9.4c.1.1.2.2.1.3l-.1.1-.9.4-.4 1c-.1.1-.2.2-.3.1l-.1-.1-.4-.9-.9-.4c-.1-.1-.2-.2-.1-.3l.1-.1.9-.4.4-.9c.1-.1.2-.2.3-.1 0-.1.1-.1.1 0z"/></svg>