<svg xmlns="http://www.w3.org/2000/svg" width="63" height="100" viewBox="0 0 63 100"><path d="M50 18.75c-6.934 0-12.5 5.566-12.5 12.5 0 4.59 2.539 8.594 6.25 10.742v1.758c0 6.25-6.25 12.5-12.5 12.5-5.176 0-9.277 1.074-12.5 2.832v-29.59C22.461 27.344 25 23.34 25 18.75c0-6.934-5.566-12.5-12.5-12.5S0 11.816 0 18.75c0 4.59 2.539 8.594 6.25 10.742V70.41C2.539 72.558 0 76.562 0 81.152c0 6.934 5.566 12.5 12.5 12.5S25 88.086 25 81.152c0-3.32-1.27-6.25-3.32-8.496 1.855-2.246 4.785-4.004 9.57-4.004 12.5 0 25-12.5 25-25v-1.758c3.711-2.148 6.25-6.152 6.25-10.742 0-6.934-5.566-12.5-12.5-12.5zM12.5 12.5c3.418 0 6.25 2.832 6.25 6.25S15.918 25 12.5 25s-6.25-2.832-6.25-6.25 2.832-6.25 6.25-6.25zm0 75c-3.418 0-6.25-2.832-6.25-6.25S9.082 75 12.5 75s6.25 2.832 6.25 6.25-2.832 6.25-6.25 6.25zm37.5-50c-3.418 0-6.25-2.832-6.25-6.25S46.582 25 50 25s6.25 2.832 6.25 6.25S53.418 37.5 50 37.5z" fill="#fff"/></svg>