<svg xmlns="http://www.w3.org/2000/svg" width="50" height="100" viewBox="0 0 50 100"><path d="M43.75 18.75C43.75 8.398 35.358 0 25 0S6.25 8.398 6.25 18.75C6.25 29.108 14.642 37.5 25 37.5s18.75-8.392 18.75-18.75zM25 31.25c-6.9 0-12.5-5.6-12.5-12.5S18.1 6.25 25 6.25c6.897 0 12.5 5.6 12.5 12.5s-5.603 12.5-12.5 12.5zm12.5 6.25h-25C5.6 37.5 0 43.1 0 50v12.5C0 69.397 5.6 75 12.5 75v25h25V75C44.397 75 50 69.397 50 62.5V50c0-6.9-5.603-12.5-12.5-12.5zm6.25 25a6.246 6.246 0 0 1-6.25 6.25v-12.5h-6.25v37.5h-12.5v-37.5H12.5v12.5a6.25 6.25 0 0 1-6.25-6.25V50a6.255 6.255 0 0 1 6.25-6.25h25A6.25 6.25 0 0 1 43.75 50v12.5z" fill="#fff"/></svg>