<svg id="Layer_1" xmlns="http://www.w3.org/2000/svg" viewBox="0 0 30.7 30.7"><style>.st0{fill:#fff}</style><path class="st0" d="M22.4 15.6c-.2.2-.5.1-.6 0M.9.8c.2-.2.5-.1.6 0m1.9 16.7l2.3-1.8c.1-.1.2-.1.3-.1h14.3c.5 0 1-.2 1.4-.6.4-.4.6-.9.6-1.4V3c0-.5-.2-1-.6-1.4-.3-.4-.8-.6-1.4-.6H3c-.5 0-1 .2-1.4.6-.4.3-.6.8-.6 1.4v10.5c0 .5.2 1 .6 1.4.4.4.9.6 1.4.6.3 0 .5.2.5.5v1.5zm2.8-1l-3 2.4c-.1.1-.4.1-.6-.1-.1-.1-.1-.2-.1-.3v-2c-.6-.1-1.2-.4-1.6-.8-.6-.6-.9-1.4-.9-2.2V3C0 2.2.3 1.4.9.9 1.4.3 2.2 0 3 0h17.4c.8 0 1.6.3 2.1.9.5.5.9 1.3.9 2.1v10.5c0 .8-.3 1.6-.9 2.1-.5.5-1.3.8-2.1.8H6.2z"/><path class="st0" d="M4.2 4.7c-.3 0-.5-.2-.5-.5s.2-.5.5-.5h14.9c.3 0 .5.2.5.5s-.2.5-.5.5H4.2zm0 2.9c-.3 0-.5-.2-.5-.5s.2-.5.5-.5h14.9c.3 0 .5.2.5.5s-.2.5-.5.5H4.2zm20.5 8.9c-.3 0-.5-.2-.5-.5s.2-.5.5-.5h1.9c.3 0 .5.2.5.5s-.2.5-.5.5h-1.9zm-13.1 2.9c-.3 0-.5-.2-.5-.5s.2-.5.5-.5h14.9c.3 0 .5.2.5.5s-.2.5-.5.5H11.6zm0 3c-.3 0-.5-.2-.5-.5s.2-.5.5-.5h14.9c.3 0 .5.2.5.5s-.2.5-.5.5H11.6zm0 2.9c-.3 0-.5-.2-.5-.5s.2-.5.5-.5h10.5c.3 0 .5.2.5.5s-.2.5-.5.5H11.6z"/><path class="st0" d="M7.4 18.5c0-.3.2-.5.5-.5s.5.2.5.5v6.8c0 .5.2 1 .6 1.4.4.3.9.6 1.4.6h14.3c.1 0 .3.1.3.1l2.3 1.8v-1.5c0-.3.2-.5.5-.5.5 0 1-.2 1.4-.6.4-.4.6-.9.6-1.4v-9.9c0-.5-.2-1-.6-1.4-.4-.3-.9-.6-1.4-.6h-2.5c-.3 0-.5-.2-.5-.5s.2-.5.5-.5h2.5c.8 0 1.5.3 2.1.8.5.5.9 1.3.9 2.1v9.9c0 .8-.3 1.6-.9 2.1-.4.4-1 .7-1.6.8v2c0 .1 0 .2-.1.3-.2.2-.5.2-.7.1l-3-2.4H10.4c-.8 0-1.5-.3-2.1-.8-.5-.5-.9-1.3-.9-2.1v-6.6zm-3.2-7.9c-.3 0-.5-.2-.5-.5s.2-.5.5-.5h10.5c.3 0 .5.2.5.5s-.2.5-.5.5H4.2z"/></svg>