<svg id="Layer_1" xmlns="http://www.w3.org/2000/svg" viewBox="0 0 30.7 30.7"><style>.st0{fill:#fff}</style><path class="st0" d="M22.8 11.4c-.2.1-.5.1-.7-.2-.1-.2-.1-.5.2-.7L30 5.8c.2-.1.5-.1.7.2 0 .1.1.2.1.3v18.2c0 .2-.1.3-.2.4L22 30.6c-.1.1-.3.1-.5 0L9.2 24.9.8 30.5c-.2.1-.5.1-.7-.1-.1-.1-.1-.2-.1-.3v-18c0-.2.1-.3.2-.4l6.7-4c.2-.1.5-.1.7.2.1.2.1.5-.2.7L.9 12.4v16.9l8-5.3c.1-.1.3-.1.5 0l12.2 5.6 8.2-5.4V7.1l-7 4.3z"/><path class="st0" d="M19.5 2.6c-1-1-2.5-1.7-4.1-1.7-1.6 0-3 .6-4.1 1.7-1 1-1.7 2.5-1.7 4.1 0 1.7 1 3.7 2.2 5.7 1.1 1.8 2.5 3.5 3.5 4.8 1-1.3 2.4-3 3.5-4.8 1.2-2 2.2-4 2.2-5.7.2-1.6-.5-3-1.5-4.1zM15.4 0c1.8 0 3.5.8 4.7 2 1.2 1.2 2 2.9 2 4.7 0 1.9-1 4.1-2.4 6.2-1.3 2.1-2.9 4-4 5.3-.2.2-.5.2-.7.1l-.1-.1c-1.1-1.3-2.6-3.3-3.9-5.3-1.3-2.1-2.4-4.3-2.4-6.2 0-1.8.8-3.5 2-4.7 1.3-1.2 3-2 4.8-2z"/><path class="st0" d="M16.8 5.3c-.3-.3-.8-.6-1.4-.6-.5 0-1 .2-1.4.6-.3.3-.6.8-.6 1.4 0 .5.2 1 .6 1.4.3.3.8.6 1.4.6.5 0 1-.2 1.4-.6.3-.3.6-.8.6-1.4-.1-.5-.3-1-.6-1.4m-1.4-1.5c.8 0 1.5.3 2 .8s.8 1.2.8 2-.3 1.5-.8 2-1.2.8-2 .8-1.5-.3-2-.8-.8-1.2-.8-2 .3-1.5.8-2 1.2-.8 2-.8zm6.7 26.3c0 .3-.2.5-.5.5s-.5-.2-.5-.5V12.9c0-.3.2-.5.5-.5s.5.2.5.5v17.2zM9.7 24.2c0 .3-.2.5-.5.5s-.5-.2-.5-.5V12.9c0-.3.2-.5.5-.5s.5.2.5.5v11.3z"/></svg>