<svg id="Layer_1" xmlns="http://www.w3.org/2000/svg" viewBox="0 0 30.7 30.7"><style>.st0{fill:#fff}</style><path class="st0" d="M3.6 17.8c.3 0 .5.2.5.5s-.2.5-.5.5H.5c-.3 0-.5-.2-.5-.5v-5.9c0-.3.2-.5.5-.5h5.3c.3 0 .5.2.5.5v5.3c0 .3-.2.5-.5.5s-.5-.2-.5-.5v-4.9H1v5h2.6z"/><path class="st0" d="M3.1 18.4c-.1-.3.1-.5.3-.6.3-.1.6.1.6.3l1.8 6.6h1.6V19c0-.3.2-.5.5-.5s.5.2.5.5v6.2c0 .3-.2.5-.5.5H5.4c-.2 0-.4-.1-.5-.4l-1.8-6.9zm.5-2.7c.3 0 .5.2.5.5s-.2.5-.5.5H2.3c-.3 0-.5-.2-.5-.5s.2-.5.5-.5h1.3zm17.8 6.9c0 .3-.2.5-.5.5s-.5-.2-.5-.5V5.4c0-.3.2-.5.5-.5s.5.2.5.5v17.2z"/><path class="st0" d="M8.1 12c-.2.1-.5 0-.6-.2-.1-.2 0-.5.2-.6l16.1-7.8c.2-.1.5 0 .6.2s0 .5-.2.6L8.1 12zm-.4 7.4c-.2-.1-.3-.4-.2-.6.1-.2.4-.3.6-.2l16.1 7.8c.2.1.3.4.2.6s-.4.3-.6.2L7.7 19.4zm0-2.5c-.2-.1-.3-.4-.2-.6.1-.2.4-.3.6-.2l16.1 7.8c.2.1.3.4.2.6s-.4.3-.6.2L7.7 16.9z"/><path class="st0" d="M23.6 3.8c0-.3.2-.5.5-.5s.5.2.5.5v20.5c0 .3-.2.5-.5.5s-.5-.2-.5-.5V3.8zm4.3 13.5c-.1.2-.4.4-.6.3-.2-.1-.4-.4-.3-.6.1-.3.2-.5.2-.8.1-.3.1-.6.1-.9 0-.6-.1-1.1-.3-1.7-.1-.2 0-.5.3-.6s.5 0 .6.3c.3.6.4 1.3.4 2 0 .3 0 .7-.1 1-.1.3-.2.7-.3 1m1.8 1.9c-.1.2-.4.3-.7.2-.2-.1-.3-.4-.2-.7.1-.1.2-.3.2-.4.1-.1.1-.3.2-.4.1-.2.2-.4.2-.6.1-.2.1-.4.2-.6 0-.2.1-.4.1-.7v-.7c0-.4 0-.9-.1-1.3 0-.2-.1-.4-.2-.6-.1-.2-.1-.4-.2-.6-.1-.1-.1-.3-.2-.4-.1-.1-.1-.3-.2-.4-.1-.2-.1-.5.2-.7.2-.1.5-.1.7.2.1.1.2.3.2.4.1.1.1.3.2.5s.2.5.2.7c.1.2.1.5.2.7.1.5.1 1 .1 1.5v.8c0 .3-.1.5-.1.7 0 .2-.1.5-.2.7-.1.2-.2.5-.2.7-.1.2-.1.3-.2.5 0 .2-.1.3-.2.5"/></svg>