<svg id="Objects" xmlns="http://www.w3.org/2000/svg" viewBox="0 0 270.6 266.2"><style>.st0{fill:#00a79d}.st1{fill:#bcbec0}.st2{fill:url(#SVGID_1_)}</style><path class="st0" d="M23.8 226.3v6.9H0v-35.7h8v28.8h15.8zm38.1-11c0 3.1-.5 5.7-1.4 8.1-.9 2.3-2.2 4.3-3.7 5.8-1.6 1.6-3.5 2.7-5.6 3.5-2.2.8-4.5 1.2-7 1.2-2.4 0-4.7-.4-6.9-1.2-2.2-.8-4-2-5.7-3.5-1.6-1.6-2.9-3.5-3.8-5.8-.9-2.3-1.4-5-1.4-8.1 0-3.1.5-5.7 1.4-8.1 1-2.3 2.3-4.3 3.9-5.8 1.6-1.6 3.5-2.8 5.7-3.6 2.1-.8 4.4-1.2 6.8-1.2 2.4 0 4.7.4 6.9 1.2 2.2.8 4 2 5.7 3.6 1.6 1.6 2.9 3.5 3.8 5.8.9 2.4 1.3 5 1.3 8.1zm-27.2 0c0 1.8.2 3.3.6 4.7.4 1.4 1 2.6 1.9 3.6.8 1 1.8 1.8 3 2.3 1.2.5 2.5.8 4 .8s2.8-.3 4-.8c1.2-.5 2.2-1.3 3-2.3.8-1 1.4-2.2 1.9-3.6.4-1.4.6-3 .6-4.7s-.2-3.3-.6-4.8c-.4-1.4-1-2.6-1.9-3.7-.8-1-1.8-1.8-3-2.3-1.2-.5-2.5-.8-4-.8s-2.8.3-4 .9c-1.2.6-2.2 1.4-3 2.4-.8 1-1.4 2.2-1.9 3.7-.4 1.3-.6 2.9-.6 4.6zM86 203.7c-3.7 0-6.4 1-8.1 3.1-1.7 2.1-2.5 4.9-2.5 8.5 0 1.8.2 3.3.6 4.8.4 1.4 1 2.7 1.9 3.7.8 1 1.9 1.8 3.1 2.4 1.2.6 2.7.8 4.3.8.9 0 1.7 0 2.3-.1.6 0 1.2-.1 1.7-.2v-12.4h8V232c-1 .4-2.5.8-4.6 1.2-2.1.4-4.8.6-7.9.6-2.7 0-5.1-.4-7.3-1.2-2.2-.8-4-2-5.6-3.6-1.5-1.6-2.7-3.5-3.6-5.8-.8-2.3-1.3-4.9-1.3-7.9s.5-5.6 1.4-7.9c.9-2.3 2.2-4.2 3.8-5.8 1.6-1.6 3.5-2.8 5.7-3.6 2.2-.8 4.5-1.2 7-1.2 1.7 0 3.2.1 4.6.3 1.4.2 2.5.5 3.5.8 1 .3 1.8.6 2.4.9.6.3 1.1.5 1.4.7l-2.3 6.4c-1.1-.6-2.4-1.1-3.8-1.5-1.5-.5-3-.7-4.7-.7zm52.7 11.6c0 3.1-.5 5.7-1.4 8.1-.9 2.3-2.2 4.3-3.7 5.8-1.6 1.6-3.5 2.7-5.6 3.5-2.2.8-4.5 1.2-7 1.2-2.4 0-4.7-.4-6.9-1.2-2.2-.8-4.1-2-5.7-3.5-1.6-1.6-2.9-3.5-3.8-5.8-.9-2.3-1.4-5-1.4-8.1 0-3.1.5-5.7 1.4-8.1 1-2.3 2.3-4.3 3.9-5.8 1.6-1.6 3.5-2.8 5.7-3.6 2.1-.8 4.4-1.2 6.8-1.2 2.4 0 4.7.4 6.9 1.2 2.2.8 4 2 5.7 3.6 1.6 1.6 2.9 3.5 3.8 5.8.8 2.4 1.3 5 1.3 8.1zm-27.2 0c0 1.8.2 3.3.6 4.7.4 1.4 1 2.6 1.9 3.6.8 1 1.8 1.8 3 2.3 1.2.5 2.5.8 4 .8s2.8-.3 4-.8c1.2-.5 2.2-1.3 3-2.3.8-1 1.4-2.2 1.9-3.6.4-1.4.6-3 .6-4.7s-.2-3.3-.6-4.8c-.4-1.4-1-2.6-1.9-3.7-.8-1-1.8-1.8-3-2.3-1.2-.5-2.5-.8-4-.8s-2.8.3-4 .9c-1.2.6-2.2 1.4-3 2.4-.8 1-1.4 2.2-1.9 3.7-.4 1.3-.6 2.9-.6 4.6zm59.2-17.8v6.8h-10.8v28.8h-8v-28.8h-10.8v-6.8h29.6zm5.1 35.7v-35.7h24.1v6.7h-16.1v7h14.3v6.6h-14.3v8.6H201v6.7h-25.2zm52.7 0c-1-2-2.1-4-3.3-6-1.2-2-2.6-3.8-4.1-5.2-.5.5-1.1 1.3-1.8 2.2-.7.9-1.5 1.9-2.2 3l-2.1 3.3c-.6 1.1-1.1 2-1.4 2.7h-9.2c1.5-2.8 3.3-5.7 5.3-8.6 2-3 4.3-6.1 6.8-9.4L205 197.5h9.7l6.8 10.3 6.9-10.3h9.2L226 214.7c3 3.8 5.5 7.3 7.5 10.5s3.5 5.8 4.6 8h-9.6zm42.1-35.7v6.8h-10.8v28.8h-8v-28.8H241v-6.8h29.6z"/><path class="st1" d="M24 263.6c1.2 0 2.2-.2 2.7-.6.6-.4.9-1 .9-1.8 0-.5-.1-.9-.3-1.2-.2-.3-.5-.6-.8-.9-.4-.3-.8-.5-1.3-.7-.5-.2-1.1-.5-1.8-.7-.7-.2-1.3-.5-1.9-.8-.6-.3-1.2-.6-1.6-1.1-.5-.4-.8-.9-1.1-1.5-.3-.6-.4-1.3-.4-2.1 0-1.7.6-3.1 1.8-4.1 1.2-1 2.8-1.5 4.9-1.5 1.2 0 2.3.1 3.2.4.9.3 1.7.6 2.2.9l-1.1 2.8c-.6-.3-1.3-.6-2-.8-.7-.2-1.5-.3-2.3-.3-.9 0-1.7.2-2.2.6-.5.4-.8.9-.8 1.6 0 .4.1.8.3 1.1.2.3.4.6.7.8.3.2.7.5 1.1.7.4.2.9.4 1.4.6.9.3 1.7.7 2.4 1 .7.3 1.3.7 1.8 1.2s.9 1 1.1 1.6c.3.6.4 1.4.4 2.3 0 1.7-.6 3.1-1.8 4-1.2.9-3 1.4-5.4 1.4-.8 0-1.5 0-2.2-.2-.7-.1-1.2-.2-1.7-.4-.5-.1-.9-.3-1.3-.5s-.7-.3-.9-.4l1-2.8c.5.3 1.2.6 2 .8.8.5 1.8.6 3 .6zm28.7-.4v3h-12v-19.1h3.5v16.1h8.5zm26.8-6.6c0 1.6-.2 3.1-.7 4.3-.5 1.2-1.1 2.3-2 3.1-.8.8-1.8 1.5-2.9 1.9-1.1.4-2.3.6-3.6.6-1.3 0-2.5-.2-3.6-.6-1.1-.4-2.1-1-2.9-1.9-.8-.8-1.5-1.9-2-3.1-.5-1.2-.7-2.7-.7-4.3 0-1.6.2-3.1.7-4.3.5-1.2 1.2-2.3 2-3.1.9-.8 1.8-1.5 3-1.9 1.1-.4 2.3-.6 3.6-.6 1.2 0 2.4.2 3.5.6 1.1.4 2.1 1.1 2.9 1.9.8.8 1.5 1.9 2 3.1.5 1.3.7 2.7.7 4.3zm-14.9 0c0 1 .1 2 .4 2.8.3.9.6 1.6 1.1 2.2.5.6 1.1 1.1 1.8 1.4.7.3 1.5.5 2.4.5.9 0 1.6-.2 2.3-.5.7-.3 1.3-.8 1.8-1.4.5-.6.9-1.3 1.1-2.2.3-.9.4-1.8.4-2.8 0-1-.1-2-.4-2.8-.3-.9-.6-1.6-1.1-2.2-.5-.6-1.1-1.1-1.8-1.4-.7-.3-1.5-.5-2.3-.5-.9 0-1.7.2-2.4.5s-1.3.8-1.8 1.4c-.5.6-.9 1.3-1.1 2.2-.2.9-.4 1.8-.4 2.8zm34-6.9c-2 0-3.5.6-4.5 1.8-1 1.2-1.6 2.9-1.6 5.1 0 1 .1 2 .4 2.8.2.9.6 1.6 1.1 2.2.5.6 1.1 1.1 1.8 1.4.7.3 1.6.5 2.5.5.6 0 1.1 0 1.6-.1.4 0 .8-.1 1-.2v-6.9h3.5v9.2c-.5.2-1.3.4-2.4.6-1.1.2-2.4.3-3.9.3-1.4 0-2.6-.2-3.8-.7-1.1-.4-2.1-1.1-2.9-1.9-.8-.8-1.4-1.9-1.9-3.1-.4-1.2-.7-2.6-.7-4.2s.2-3 .7-4.2c.5-1.2 1.2-2.3 2-3.1.8-.9 1.8-1.5 3-1.9 1.1-.4 2.3-.7 3.6-.7.9 0 1.7.1 2.4.2s1.3.3 1.8.4c.5.1.9.3 1.2.5.3.2.5.3.7.4l-1 2.8c-.6-.3-1.2-.6-2.1-.8-.7-.2-1.6-.4-2.5-.4zm29 16.5c-.3-.8-.5-1.5-.8-2.2-.3-.7-.5-1.5-.8-2.3h-8c-.3.8-.5 1.5-.8 2.3-.3.7-.5 1.5-.8 2.2h-3.6c.7-2 1.4-3.9 2-5.6.6-1.7 1.3-3.4 1.9-4.9.6-1.5 1.2-3 1.8-4.4.6-1.4 1.2-2.8 1.9-4.1h3.3c.6 1.4 1.3 2.7 1.9 4.1.6 1.4 1.2 2.9 1.8 4.4.6 1.5 1.2 3.2 1.9 4.9.7 1.7 1.3 3.6 2 5.6h-3.7zm-5.6-15.4c-.4 1-.9 2.2-1.4 3.6-.5 1.4-1.1 2.9-1.7 4.5h6.3c-.6-1.6-1.2-3.2-1.7-4.6-.6-1.4-1.1-2.6-1.5-3.5zm31 15.4c-.6-1-1.3-2.2-2.1-3.4l-2.4-3.6c-.8-1.2-1.7-2.4-2.5-3.5-.9-1.1-1.7-2.2-2.4-3.1v13.6h-3.4v-19.1h2.8c.7.8 1.5 1.7 2.4 2.7.8 1.1 1.7 2.2 2.5 3.3.9 1.1 1.7 2.3 2.5 3.4s1.5 2.2 2.1 3.2V247h3.4v19.1H153zm25.7-19.1h3.5v19.1h-3.5v-8.5h-8.3v8.5h-3.5v-19.1h3.5v7.6h8.3v-7.6zm14.4 19.1v-19.1h12.2v2.9h-8.8v4.7h7.8v2.9h-7.8v5.6h9.4v2.9h-12.8zm27.8-19.3c2.8 0 4.9.5 6.3 1.5 1.5 1 2.2 2.5 2.2 4.6 0 2.6-1.3 4.3-3.8 5.3.3.4.7.9 1.2 1.5.4.6.9 1.3 1.3 2 .5.7.9 1.4 1.3 2.2.4.7.8 1.5 1.1 2.2h-3.9c-.3-.7-.7-1.3-1.1-2-.4-.7-.8-1.3-1.2-2l-1.2-1.8c-.4-.6-.8-1.1-1.1-1.5h-2.9v7.2h-3.5v-18.8c.8-.2 1.7-.3 2.7-.4 1 .1 1.9 0 2.6 0zm.3 3c-.7 0-1.4 0-2 .1v6.2h1.5c.8 0 1.6 0 2.2-.1.6-.1 1.2-.3 1.6-.5.4-.2.8-.6 1-1 .2-.4.3-.9.3-1.5s-.1-1.1-.3-1.5c-.2-.4-.5-.7-1-1-.4-.2-.9-.4-1.5-.5-.5-.1-1.1-.2-1.8-.2zm18.5 16.3v-19.1H252v2.9h-8.8v4.7h7.8v2.9h-7.8v5.6h9.4v2.9h-12.9z"/><linearGradient id="SVGID_1_" gradientUnits="userSpaceOnUse" x1="267.494" y1="84.938" x2="6.154" y2="84.938"><stop offset="0" stop-color="#00a79d"/><stop offset="1" stop-color="#262262"/></linearGradient><path class="st2" d="M181.3 0l-23 23-23-23L125 10.3 199 85l-40.7 40.7-12.4-12.4L174.2 85 89.3 0l-85 84.9 84.9 84.9 23-23 23 23 10.5-10.5-74.1-74.4 40.7-40.7 12.4 12.4-28.4 28.3 84.9 84.9 84.9-84.9L181.3 0zm-131 84.9l51.3 51.3-12.4 12.4-63.6-63.7 63.7-63.7 12.4 12.4-51.4 51.3zm67.3 0l17.7-17.7L153 84.9l-17.7 17.7-17.7-17.7zm51.3 51.4L220.2 85l-51.3-51.3 12.4-12.4L245 84.9l-63.7 63.7-12.4-12.3z"/></svg>