<svg id="Camada_1" xmlns="http://www.w3.org/2000/svg" viewBox="0 0 654.7 849.8"><style>.st0{fill:url(#SVGID_1_)}.st1{fill:url(#SVGID_2_)}.st2{fill:url(#SVGID_3_)}.st3{fill:url(#SVGID_4_)}.st4{fill:url(#SVGID_5_)}.st5{fill:url(#SVGID_6_)}.st6{fill:url(#SVGID_7_)}.st7{fill:url(#SVGID_8_)}.st8{fill:url(#SVGID_9_)}.st9{fill:url(#SVGID_10_)}.st10{fill:#00386c}.st11{fill:#fbb040}</style><linearGradient id="SVGID_1_" gradientUnits="userSpaceOnUse" x1="298.404" y1="521.627" x2="298.404" y2="6.257"><stop offset="0" stop-color="#00abc5"/><stop offset=".439" stop-color="#00929e"/><stop offset="1" stop-color="#007b8d"/></linearGradient><path class="st0" d="M398.8 521.6c3.8-39.2-12.4-82.2-45.4-119.5-.8-.9-1.5-1.7-2.3-2.6-13.4-14.6-29.5-28.9-50.7-44.8-11.7-8.8-24-17.4-35.8-25.7-8.3-5.8-16.9-11.8-25.2-17.8-35.3-25.6-74.1-57.7-94.1-101.9-16.6-36.7-18.5-79.6-5.1-117.7 12.6-35.8 38.4-66.6 71.4-85.3-.8 5.3-.9 10.7-.3 16.2l-.9-.4 1.8 6.8c.9 4.3 2.2 8.7 3.9 13.1 6.7 17.3 19.9 35.4 39.4 53.8 21 19.9 50.3 42.3 76.1 61.9 7.2 5.5 14.1 10.7 20.3 15.6 33.1 25.7 58 45.7 76.7 68.6 20.5 25.1 31.8 52.3 35.6 85.6 0 .2.1 1 .2 1.2 2.5 23.2 1.5 46.9-3 70.5-9.1 46.2-31.1 89.3-62.6 122.4z"/><linearGradient id="SVGID_2_" gradientUnits="userSpaceOnUse" x1="127.933" y1="202.14" x2="468.907" y2="202.14"><stop offset="0" stop-color="#007b8d"/><stop offset=".561" stop-color="#00929e"/><stop offset="1" stop-color="#00abc5"/></linearGradient><path class="st1" d="M401 347.9C286.2 237.1 232.8 85.3 219 40.8c-1.6-4.2-2.9-8.4-3.7-12.7v-.2c-1.8-9.1-1.7-18.5.9-27.9 0 0-120.7 130.6 82.3 357.3h-.1c18 13.5 35.1 27.8 50.3 44.4.8.8 1.5 1.7 2.3 2.5 8.2-25.9 26.8-43.9 50-56.3z"/><linearGradient id="SVGID_3_" gradientUnits="userSpaceOnUse" x1="295.304" y1="211.587" x2="386.891" y2="158.709"><stop offset="0" stop-color="#007b8d"/><stop offset=".2" stop-color="#008393"/><stop offset=".423" stop-color="#00929e"/><stop offset="1" stop-color="#00aab5"/></linearGradient><path class="st2" d="M353.8 170.7c-28.6-22.2-69.4-51.9-96.2-77.3-15.7-14.9-31-33-38.6-52.6 13.9 44.6 67.3 196.3 182 307.2 19.8-10.5 43-17 66.3-20.8-8.3-73.2-50.5-107.6-113.5-156.5z"/><linearGradient id="SVGID_4_" gradientUnits="userSpaceOnUse" x1="156.368" y1="236.799" x2="303.717" y2="151.727"><stop offset="0" stop-color="#007b8d"/><stop offset=".393" stop-color="#00929e"/><stop offset="1" stop-color="#6ac9c8"/></linearGradient><path class="st3" d="M216.1 0c-36.6 18.6-65.6 51.7-79.2 90.5-13.6 38.7-11.7 82.7 5.3 120.1 19.5 43.1 56.9 75.5 95.2 103.3 20.2 14.6 41.1 28.5 61 43.5h.1C95.4 130.6 216.1 0 216.1 0z"/><linearGradient id="SVGID_5_" gradientUnits="userSpaceOnUse" x1="407.695" y1="530.97" x2="407.695" y2="347.94"><stop offset="0" stop-color="#b1ded3"/><stop offset=".439" stop-color="#00b3b5"/><stop offset="1" stop-color="#007b8d"/></linearGradient><path class="st4" d="M394.2 531c36.3-35 60.8-81.7 70.3-131.1-23-15.7-44.1-33.2-63.4-51.9-23.3 12.4-41.8 30.4-50.1 56.3 30.7 34.7 51.7 81.2 43.2 126.7z"/><linearGradient id="SVGID_6_" gradientUnits="userSpaceOnUse" x1="434.968" y1="399.845" x2="434.968" y2="327.123"><stop offset="0" stop-color="#00abc5"/><stop offset=".439" stop-color="#00929e"/><stop offset="1" stop-color="#007b8d"/></linearGradient><path class="st5" d="M464.5 399.8c4.5-23.5 5.7-47.7 3.1-71.5 0-.4-.1-.8-.2-1.2-23.3 3.8-46.5 10.3-66.3 20.8 19.3 18.7 40.4 36.3 63.4 51.9z"/><linearGradient id="SVGID_7_" gradientUnits="userSpaceOnUse" x1="141.823" y1="318.545" x2="292.722" y2="318.545"><stop offset="0" stop-color="#ffcb05"/><stop offset=".607" stop-color="#f37021"/><stop offset="1" stop-color="#f04e23"/></linearGradient><path class="st6" d="M292.7 376c-46.4-34.2-90.5-55.2-139.2-114.9-8.6 27.2-12.6 56.3-11.5 85 33.7-8.6 91-12.7 150.7 29.9z"/><linearGradient id="SVGID_8_" gradientUnits="userSpaceOnUse" x1="142.006" y1="498.83" x2="372.76" y2="498.83"><stop offset="0" stop-color="#f04e23"/><stop offset=".393" stop-color="#f37021"/><stop offset="1" stop-color="#fbb040"/></linearGradient><path class="st7" d="M312.3 638.4c-.7 6.5-2.3 12.8-5.4 18.7 25.1-30.7 47.8-64.3 59-102.3 11.2-38 9.6-81.2-11.4-114.8-5.2-8.3-11.4-16.5-18.3-24.4-3.6-4.1-7.2-8-10.9-11.7l-1.4-1.4-.1-.1c-9.1-9-18.8-17.3-28.4-24.5-.9-.7-1.8-1.3-2.7-2-59.8-42.6-117-38.6-150.7-30 174.7 143.2 177.8 250.9 170.3 292.5z"/><linearGradient id="SVGID_9_" gradientUnits="userSpaceOnUse" x1="142.007" y1="492.229" x2="314.413" y2="492.229"><stop offset="0" stop-color="#f04e23"/><stop offset=".393" stop-color="#f37021"/><stop offset="1" stop-color="#ffd400"/></linearGradient><path class="st8" d="M142 346s76.9 66.7 131.6 194c14.5 14 25.7 31.1 31.3 50 4.7 15.8 9 32.5 7.4 48.3 7.5-41.5 4.4-149.2-170.3-292.3z"/><linearGradient id="SVGID_10_" gradientUnits="userSpaceOnUse" x1="207.784" y1="540.086" x2="207.784" y2="346.041"><stop offset="0" stop-color="#f04e23"/><stop offset=".393" stop-color="#f37021"/><stop offset="1" stop-color="#fbb040"/></linearGradient><path class="st9" d="M142 346c1.9 49.9 19.3 98.4 54.6 133.1 16.5 16.2 52.4 39.9 70.2 54.8 2.3 2 4.6 4 6.8 6.1C218.9 412.8 142 346 142 346z"/><path class="st10" d="M15.8 696.1c-2.4 0-4.4 2-4.4 4.4v54.1c0 2.4 2 4.4 4.4 4.4h67.4v9.1H15.8c-7.5 0-13.5-6-13.5-13.5v-54.1c0-7.5 6-13.5 13.5-13.5h67.4v9.1H15.8zm146.4-9.1c7.5 0 13.5 6 13.5 13.5v54.1c0 7.5-6 13.5-13.5 13.5h-54.1c-7.5 0-13.5-6-13.5-13.5v-54.1c0-7.5 6-13.5 13.5-13.5h54.1zm0 71.9c2.4 0 4.4-2 4.4-4.4v-54.1c0-2.4-2-4.4-4.4-4.4h-54.1c-2.4 0-4.4 2-4.4 4.4v54.1c0 2.4 2 4.4 4.4 4.4h54.1zM268 687h12.5v81.1h-9.1v-70.7l-37.1 44-37.1-44v70.7h-9.1V687h12.5l33.7 40.1L268 687zm92.3.1c7.5 0 13.5 6.1 13.5 13.5v23.8c0 7.4-6 13.5-13.5 13.5h-54.1c-1 0-2.7-.2-4.4-.4v30.6h-9.1v-81h67.6zm4.4 13.5c0-2.4-2-4.4-4.4-4.4h-54.1c-2.4 0-4.4 2-4.4 4.4v23.8c0 2.4 2 4.3 4.4 4.3h54.1c2.4 0 4.4-1.9 4.4-4.3v-23.8zm86-13.6c7.5 0 13.5 6 13.5 13.5v67.6h-9.1v-29.6h-62.9v29.6h-9.1v-67.6c0-7.5 6-13.5 13.5-13.5h54.1zm4.4 42.3v-28.8c0-2.4-2-4.4-4.4-4.4h-54.1c-2.4 0-4.4 2-4.4 4.4v28.8h62.9zm94-42.3h9.1v81.1h-12.5l-59.5-70.7v70.7h-9.1V687h12.5l59.5 70.7V687zm101 0l-37.3 50.6v30.5h-9.1v-30.5c-12.1-16.6-25-34-37.3-50.6h10.5l31.4 39.7c9.8-12.6 21.2-27 31.1-39.7h10.7z"/><path class="st11" d="M43.9 798.7v25.1c0 5-4 9-9 9H0v-57.1h6.1v14.1h28.8c4.9-.1 9 4 9 8.9zm-6.1 0c0-1.6-1.3-2.9-2.9-2.9H9.1c-1.6 0-3 1.3-3 2.9v25.1c0 1.6 1.3 2.9 3 2.9h25.8c1.6 0 2.9-1.3 2.9-2.9v-25.1zm55.5-9v34.1c0 5-4 9-9.1 9H58.4c-5 0-9-4-9-9v-34.1h6.1v34.1c0 1.6 1.3 2.9 2.9 2.9h25.8c1.6 0 3-1.3 3-2.9v-34.1h6.1zm50 9.6h-6.2v-.6c0-1.6-1.3-2.9-2.9-2.9h-25.8c-1.6 0-2.9 1.3-2.9 2.9v6.6c0 1.6 1.3 2.9 2.9 2.9h25.8c5 0 9.1 4 9.1 9v6.6c0 5-4 9-9.1 9h-25.8c-5 0-9-4-9-9v-.6h6.1v.6c0 1.6 1.3 2.9 2.9 2.9h25.8c1.6 0 2.9-1.3 2.9-2.9v-6.6c0-1.6-1.3-2.9-2.9-2.9h-25.8c-5 0-9-4-9-9v-6.6c0-5 4-9 9-9h25.8c5 0 9.1 4 9.1 9v.6zm13.5-23.6v6.1h-6.1v-6.1h6.1zm-6.1 14h6.1v43h-6.1v-43zm58.3 9v34.1h-6.1v-34.1c0-1.6-1.3-2.9-2.9-2.9h-25.8c-1.6 0-3 1.3-3 2.9v34.1h-6.1v-43H200c5-.1 9 4 9 8.9zm51.4 0v15.6h-37.8v9.5c0 1.6 1.3 2.9 2.9 2.9h34.9v6.1h-34.9c-5 0-9-4-9-9v-25.1c0-5 4-9 9-9h25.8c5.1 0 9.1 4.1 9.1 9zm-6.1 9.5v-9.5c0-1.6-1.3-2.9-2.9-2.9h-25.8c-1.6 0-2.9 1.3-2.9 2.9v9.5h31.6zm57.2-8.9h-6.2v-.6c0-1.6-1.3-2.9-2.9-2.9h-25.8c-1.6 0-2.9 1.3-2.9 2.9v6.6c0 1.6 1.3 2.9 2.9 2.9h25.8c5 0 9.1 4 9.1 9v6.6c0 5-4 9-9.1 9h-25.8c-5 0-9-4-9-9v-.6h6.1v.6c0 1.6 1.3 2.9 2.9 2.9h25.8c1.6 0 2.9-1.3 2.9-2.9v-6.6c0-1.6-1.3-2.9-2.9-2.9h-25.8c-5 0-9-4-9-9v-6.6c0-5 4-9 9-9h25.8c5 0 9.1 4 9.1 9v.6zm50.9 0h-6.2v-.6c0-1.6-1.3-2.9-2.9-2.9h-25.8c-1.6 0-2.9 1.3-2.9 2.9v6.6c0 1.6 1.3 2.9 2.9 2.9h25.8c5 0 9.1 4 9.1 9v6.6c0 5-4 9-9.1 9h-25.8c-5 0-9-4-9-9v-.6h6.1v.6c0 1.6 1.3 2.9 2.9 2.9h25.8c1.6 0 2.9-1.3 2.9-2.9v-6.6c0-1.6-1.3-2.9-2.9-2.9h-25.8c-5 0-9-4-9-9v-6.6c0-5 4-9 9-9h25.8c5 0 9.1 4 9.1 9v.6zm33.7-3.5v28c0 1.6 1.3 2.9 2.9 2.9h15.7v6.1H399c-5 0-9-4-9-9v-48.2h6.1v14.1h18.6v6.1h-18.6zm68.1 2.9v34.1h-34.9c-5 0-9-4-9-9v-15.6H458v-9.5c0-1.6-1.3-2.9-2.9-2.9h-34.8v-6.1h34.8c5.1 0 9.1 4.1 9.1 9zm-6.1 15.6h-31.6v9.5c0 1.6 1.3 2.9 2.9 2.9h28.7v-12.4zm47.7 35.5H479v-6.2h26.9c1.6 0 2.9-1.3 2.9-2.9v-7.9H480c-5 0-9-4-9-9v-25.1c0-5 4-9 9-9h25.8c5 0 9 4 9 9v42c0 5.1-3.9 9.1-9 9.1zm0-23.1c1.6 0 2.9-1.3 2.9-2.9v-25.1c0-1.6-1.3-2.9-2.9-2.9H480c-1.6 0-2.9 1.3-2.9 2.9v25.1c0 1.6 1.3 2.9 2.9 2.9h25.8zm22.8-51v48.2c0 1.6 1.3 2.9 2.9 2.9h7.3v6.1h-7.3c-5 0-9-4-9-9v-48.2h6.1zm22.4 0v6.1h-6.1v-6.1h6.1zm-6.1 14h6.1v43h-6.1v-43zm58.4 9v34.1h-6.1v-34.1c0-1.6-1.3-2.9-2.9-2.9h-25.8c-1.6 0-3 1.3-3 2.9v34.1h-6.1v-43h34.9c4.9-.1 9 4 9 8.9zm51.4 0v15.6h-37.8v9.5c0 1.6 1.3 2.9 2.9 2.9h34.9v6.1h-34.9c-5 0-9-4-9-9v-25.1c0-5 4-9 9-9h25.8c5.1 0 9.1 4.1 9.1 9zm-6.2 9.5v-9.5c0-1.6-1.3-2.9-2.9-2.9h-25.8c-1.6 0-2.9 1.3-2.9 2.9v9.5h31.6z"/></svg>