<svg id="objects" xmlns="http://www.w3.org/2000/svg" viewBox="-370 200.3 458.1 440.6"><style>.st0{enable-background:new}.st1{fill:#715474}.st2{fill:#947f97}.st3{opacity:.3;fill:url(#SVGID_1_);enable-background:new}.st4{fill:url(#SVGID_2_)}.st5{fill:url(#SVGID_3_)}.st6{fill:url(#SVGID_4_)}.st7{fill:url(#SVGID_5_)}.st8{fill:url(#SVGID_6_)}.st9{fill:url(#SVGID_7_)}.st10,.st11{opacity:.8;fill:url(#SVGID_8_);enable-background:new}.st11{fill:url(#SVGID_9_)}.st12{fill:url(#SVGID_10_)}.st13{fill:url(#SVGID_11_)}.st14{fill:url(#SVGID_12_)}.st15{opacity:.9}.st16{fill:url(#SVGID_13_)}.st17{fill:url(#SVGID_14_)}.st18{opacity:.8}.st19{fill:url(#SVGID_15_)}.st20{fill:url(#SVGID_16_)}</style><path class="st0 st1" d="M-273.2 536.2h24.6v7.2h-8.3v43.3h-7.9v-43.3h-8.3v-7.2zm37 21.4h10.9v7.2h-10.9v14.8h13.7v7.2h-21.7v-50.6h21.7v7.2h-13.7v14.2zm46-21.4l-8.3 24.6 8.9 26h-8.4l-6.4-20h-.1l-6.5 20h-7.4l8.9-26-8.3-24.6h8.2l5.9 18.6h.1l6.1-18.6h7.3zm3.2 0h24.6v7.2h-8.3v43.3h-7.9v-43.3h-8.3v-7.2zm51.8-.5c7.7 0 11.7 4.6 11.7 12.7v1.6h-7.5v-2.1c0-3.6-1.4-5-4-5s-4 1.4-4 5c0 3.7 1.6 6.4 6.8 11 6.6 5.9 8.7 10 8.7 15.8 0 8.1-4 12.7-11.8 12.7s-11.8-4.6-11.8-12.7v-3.1h7.5v3.6c0 3.6 1.6 4.9 4.1 4.9s4.1-1.3 4.1-4.9c0-3.7-1.6-6.4-6.8-11-6.6-5.9-8.7-10-8.7-15.8 0-8.1 4-12.7 11.7-12.7zm40.8 13v6.6c0 8.1-3.9 12.5-11.8 12.5h-3.8v19h-7.9v-50.6h11.7c7.9 0 11.8 4.5 11.8 12.5zm-15.6-5.2v17.1h3.8c2.5 0 3.9-1.2 3.9-4.8v-7.6c0-3.6-1.4-4.8-3.9-4.8h-3.8zm45 43.3h-8l-1.4-9.2h-9.8l-1.4 9.2h-7.3l8.1-50.6h11.6l8.2 50.6zm-18.1-16h7.7l-3.8-25.6h-.1l-3.8 25.6zm45.7-2.8v6.7c0 8.1-4 12.7-11.8 12.7-7.8 0-11.8-4.6-11.8-12.7v-26.3c0-8.1 4-12.7 11.8-12.7 7.8 0 11.8 4.6 11.8 12.7v4.9h-7.5v-5.4c0-3.6-1.6-5-4.1-5-2.5 0-4.1 1.4-4.1 5v27.3c0 3.6 1.6 4.9 4.1 4.9 2.5 0 4.1-1.3 4.1-4.9V568h7.5zm13.7-10.4h10.9v7.2h-10.9v14.8H-10v7.2h-21.7v-50.6H-10v7.2h-13.7v14.2z"/><path class="st0 st2" d="M-232.5 626.9V606h1.5v19.5h9.9v1.4h-11.4zm32.5-10.5c0 3.3-.8 5.9-2.5 7.9-1.7 1.9-3.9 2.9-6.9 2.9-2.9 0-5.2-1-6.8-2.9-1.7-1.9-2.5-4.6-2.5-7.9 0-3.3.8-5.9 2.5-7.8 1.7-1.9 4-2.9 6.8-2.9 2.9 0 5.2 1 6.8 2.9s2.6 4.5 2.6 7.8zm-17.1 0c0 3 .7 5.3 2 6.9 1.3 1.6 3.2 2.4 5.7 2.4s4.4-.8 5.8-2.4 2-3.9 2-6.9c0-3-.7-5.3-2-6.9-1.3-1.6-3.2-2.4-5.7-2.4s-4.4.8-5.7 2.4c-1.4 1.7-2.1 4-2.1 6.9zm23.4 1.4v9.1h-1.5V606h5c2.6 0 4.5.5 5.7 1.4 1.2 1 1.9 2.4 1.9 4.3 0 1.4-.4 2.6-1.1 3.5s-1.9 1.7-3.4 2.1l5.7 9.5h-1.7l-5.4-9.1h-5.2zm0-1.3h4c1.8 0 3.1-.4 4.1-1.2 1-.8 1.5-1.9 1.5-3.5s-.5-2.7-1.4-3.5c-1-.7-2.5-1.1-4.7-1.1h-3.5v9.3zm27.3 10.4h-11.4V606h11.4v1.3h-9.9v7.9h9.4v1.3h-9.4v8.9h9.9v1.5zm13.9 0l-7.8-19.3h-.1c.1 1.2.1 2.4.1 3.6v15.6h-1.4V606h2.3l7.4 18.4h.1l7.4-18.4h2.2v20.9h-1.5v-15.8c0-1.1.1-2.2.2-3.4h-.1l-7.8 19.2h-1zm23.6 0V606h1.5v20.9h-1.5zM-109 612c0 2-.7 3.6-2.1 4.6-1.4 1.1-3.3 1.6-5.8 1.6h-3.2v8.6h-1.5V606h5.1c5 0 7.5 2 7.5 6zm-11.1 5h2.9c2.3 0 4-.4 5.1-1.2 1-.8 1.6-2 1.6-3.8 0-1.6-.5-2.8-1.5-3.6-1-.8-2.5-1.2-4.6-1.2h-3.5v9.8zm27.2 4.5c0 1.7-.6 3.1-1.9 4.1-1.3 1-3 1.5-5.1 1.5-2.5 0-4.5-.3-5.9-.8v-1.5c1.5.6 3.4 1 5.8 1 1.7 0 3.1-.4 4.1-1.2s1.5-1.8 1.5-3.1c0-.8-.2-1.4-.5-2s-.9-1-1.6-1.4c-.8-.4-1.9-.9-3.3-1.4-2.1-.7-3.6-1.5-4.4-2.4-.8-.9-1.2-2-1.2-3.4 0-1.6.6-2.8 1.8-3.8 1.2-1 2.8-1.5 4.7-1.5 2 0 3.8.4 5.5 1.1l-.5 1.3c-1.7-.7-3.4-1.1-5-1.1-1.5 0-2.8.4-3.7 1.1-.9.7-1.4 1.7-1.4 2.9 0 .8.1 1.4.4 1.9.3.5.7.9 1.4 1.3.6.4 1.7.9 3.3 1.4 1.6.6 2.8 1.1 3.7 1.6s1.4 1.1 1.8 1.8.5 1.7.5 2.6zm19.7-15.5v13.5c0 2.4-.7 4.3-2.1 5.6-1.4 1.4-3.3 2-5.8 2-2.4 0-4.3-.7-5.7-2s-2-3.2-2-5.7V606h1.5v13.5c0 2 .6 3.6 1.7 4.7s2.7 1.7 4.7 1.7 3.5-.5 4.6-1.6 1.6-2.6 1.6-4.6V606h1.5zm14.9 20.9l-7.8-19.3h-.1c.1 1.2.1 2.4.1 3.6v15.6h-1.4V606h2.3l7.4 18.4h.1l7.4-18.4h2.2v20.9h-1.5v-15.8c0-1.1.1-2.2.2-3.4h-.1l-7.8 19.2h-1z"/><radialGradient id="SVGID_1_" cx="-637.018" cy="-731.533" r="20.323" gradientTransform="matrix(11.2656 0 0 -.837 7035.392 -115.703)" gradientUnits="userSpaceOnUse"><stop offset="0"/><stop offset=".067" stop-color="#282828"/><stop offset=".162" stop-color="#5a5a5a"/><stop offset=".262" stop-color="#868686"/><stop offset=".365" stop-color="#acacac"/><stop offset=".471" stop-color="#cacaca"/><stop offset=".583" stop-color="#e1e1e1"/><stop offset=".702" stop-color="#f2f2f2"/><stop offset=".833" stop-color="#fcfcfc"/><stop offset="1" stop-color="#fff"/></radialGradient><path class="st3" d="M88.1 496.6c0 9.4-102.6 17-229.1 17s-229.1-7.6-229.1-17 102.6-17 229.1-17c126.6 0 229.1 7.6 229.1 17z"/><linearGradient id="SVGID_2_" gradientUnits="userSpaceOnUse" x1="-72.525" y1="370.281" x2="-72.674" y2="375.279" gradientTransform="matrix(1 0 0 -1 0 840.47)"><stop offset=".254" stop-color="#fff" stop-opacity=".7"/><stop offset=".747" stop-color="#fff" stop-opacity=".7"/><stop offset=".823" stop-color="#fafbfc" stop-opacity=".64"/><stop offset=".914" stop-color="#ebf0f5" stop-opacity=".568"/><stop offset="1" stop-color="#d7e0eb" stop-opacity=".5"/></linearGradient><path class="st4" d="M-72.6 470.2c3.2 0 3.2-5 0-5s-3.2 5 0 5z"/><linearGradient id="SVGID_3_" gradientUnits="userSpaceOnUse" x1="-65.293" y1="628.463" x2="-97.82" y2="597.695" gradientTransform="matrix(1 0 0 -1 0 840.47)"><stop offset=".258" stop-color="#144851"/><stop offset=".481" stop-color="#11414a"/><stop offset=".798" stop-color="#082f38"/><stop offset="1" stop-color="#002028"/></linearGradient><path class="st5" d="M-102.6 200.3l38.6 57.5-76.9-2.9z"/><linearGradient id="SVGID_4_" gradientUnits="userSpaceOnUse" x1="-142.954" y1="597.183" x2="22.887" y2="479.18" gradientTransform="matrix(1 0 0 -1 0 840.47)"><stop offset="0" stop-color="#58cdcd"/><stop offset=".126" stop-color="#54cccc"/><stop offset=".262" stop-color="#46c8c8"/><stop offset=".403" stop-color="#31c2c2"/><stop offset=".419" stop-color="#2ec1c1"/><stop offset=".877" stop-color="#239191"/></linearGradient><path class="st6" d="M-119.4 219.6l-56.7 43.4L4.6 387.6V305z"/><linearGradient id="SVGID_5_" gradientUnits="userSpaceOnUse" x1="-67.035" y1="453.63" x2="2.192" y2="453.63" gradientTransform="matrix(1 0 0 -1 0 840.47)"><stop offset=".258" stop-color="#144851"/><stop offset=".481" stop-color="#11414a"/><stop offset=".798" stop-color="#082f38"/><stop offset="1" stop-color="#002028"/></linearGradient><path class="st7" d="M4.6 387.6l-56.7 36.9 1.1-75.3z"/><linearGradient id="SVGID_6_" gradientUnits="userSpaceOnUse" x1="-143.622" y1="596.243" x2="22.219" y2="478.241" gradientTransform="matrix(1 0 0 -1 0 840.47)"><stop offset=".074" stop-color="#239191"/><stop offset=".419" stop-color="#2ec1c1"/><stop offset=".921" stop-color="#58cdcd"/></linearGradient><path class="st8" d="M-119.4 219.6l-56.7 43.4L4.6 387.6-64 299.2z"/><linearGradient id="SVGID_7_" gradientUnits="userSpaceOnUse" x1="-67.035" y1="453.63" x2="2.192" y2="453.63" gradientTransform="matrix(1 0 0 -1 0 840.47)"><stop offset=".258" stop-color="#144851"/><stop offset=".481" stop-color="#11414a"/><stop offset=".798" stop-color="#082f38"/><stop offset="1" stop-color="#002028"/></linearGradient><path class="st9" d="M4.6 387.6l-56.7 36.9 1.1-75.3z"/><linearGradient id="SVGID_8_" gradientUnits="userSpaceOnUse" x1="-87.071" y1="428.194" x2="-167.724" y2="291.435" gradientTransform="matrix(1 0 0 -1 0 840.47)"><stop offset=".113" stop-color="#db6fbb"/><stop offset=".322" stop-color="#d96cb8"/><stop offset=".493" stop-color="#d162b0"/><stop offset=".651" stop-color="#c550a3"/><stop offset=".8" stop-color="#b3388f"/><stop offset=".943" stop-color="#9d1a77"/><stop offset="1" stop-color="#920b6b"/></linearGradient><path class="st10" d="M-16.7 372.6l-55.5-38-110.5 160.2h82.6z"/><linearGradient id="SVGID_9_" gradientUnits="userSpaceOnUse" x1="-109.093" y1="367.411" x2="-39.645" y2="495.76" gradientTransform="matrix(1 0 0 -1 0 840.47)"><stop offset=".113" stop-color="#db6fbb"/><stop offset="1" stop-color="#920b6b"/></linearGradient><path class="st11" d="M-16.7 372.6l-55.5-38-13.6 80.1-14.3 80.1z"/><linearGradient id="SVGID_10_" gradientUnits="userSpaceOnUse" x1="-223.12" y1="340.701" x2="-187.502" y2="393.238" gradientTransform="matrix(1 0 0 -1 0 840.47)"><stop offset=".258" stop-color="#144851"/><stop offset=".481" stop-color="#11414a"/><stop offset=".798" stop-color="#082f38"/><stop offset="1" stop-color="#002028"/></linearGradient><path class="st12" d="M-182.7 494.8l-37-55.6h75.3z"/><linearGradient id="SVGID_11_" gradientUnits="userSpaceOnUse" x1="-150.619" y1="399.197" x2="-296.555" y2="492.183" gradientTransform="matrix(1 0 0 -1 0 840.47)"><stop offset=".03" stop-color="#58cdcd"/><stop offset=".146" stop-color="#54cccc"/><stop offset=".273" stop-color="#46c8c8"/><stop offset=".404" stop-color="#31c2c2"/><stop offset=".419" stop-color="#2ec1c1"/><stop offset="1" stop-color="#239191"/></linearGradient><path class="st13" d="M-168.7 474.8l39-56.9-160.2-110.4V390z"/><linearGradient id="SVGID_12_" gradientUnits="userSpaceOnUse" x1="-287.881" y1="562.769" x2="-236.992" y2="535.57" gradientTransform="matrix(1 0 0 -1 0 840.47)"><stop offset=".258" stop-color="#144851"/><stop offset=".481" stop-color="#11414a"/><stop offset=".798" stop-color="#082f38"/><stop offset="1" stop-color="#002028"/></linearGradient><path class="st14" d="M-289.9 307.5l58-39.3-3.3 77.1z"/><g class="st15"><linearGradient id="SVGID_13_" gradientUnits="userSpaceOnUse" x1="-150.619" y1="399.197" x2="-296.555" y2="492.183" gradientTransform="matrix(1 0 0 -1 0 840.47)"><stop offset=".099" stop-color="#239191"/><stop offset=".419" stop-color="#2ec1c1"/><stop offset=".936" stop-color="#58cdcd"/></linearGradient><path class="st16" d="M-168.7 474.8l39-56.9-160.2-110.4 70.3 95.9z"/><linearGradient id="SVGID_14_" gradientUnits="userSpaceOnUse" x1="-287.881" y1="562.769" x2="-236.992" y2="535.57" gradientTransform="matrix(1 0 0 -1 0 840.47)"><stop offset=".258" stop-color="#144851"/><stop offset=".481" stop-color="#11414a"/><stop offset=".798" stop-color="#082f38"/><stop offset="1" stop-color="#002028"/></linearGradient><path class="st17" d="M-289.9 307.5l58-39.3-3.3 77.1z"/></g><g class="st18"><linearGradient id="SVGID_15_" gradientUnits="userSpaceOnUse" x1="-219.111" y1="520.937" x2="-147.808" y2="646.009" gradientTransform="matrix(1 0 0 -1 0 840.47)"><stop offset=".158" stop-color="#920b6b"/><stop offset=".985" stop-color="#db6fbb"/></linearGradient><path class="st19" d="M-269.1 322.1l56 38.3 110.5-160.1h-82.6z"/></g><g class="st18"><linearGradient id="SVGID_16_" gradientUnits="userSpaceOnUse" x1="-213.654" y1="517.825" x2="-142.351" y2="642.898" gradientTransform="matrix(1 0 0 -1 0 840.47)"><stop offset=".291" stop-color="#db6fbb"/><stop offset=".98" stop-color="#920b6b"/></linearGradient><path class="st20" d="M-195.7 273.5l-17.4 86.9 110.5-160.1h-82.6z"/></g></svg>