<svg id="object" xmlns="http://www.w3.org/2000/svg" viewBox="-353 272.7 491.9 296.2"><style>.st0{fill:#dc2a25}.st1{fill:#b9bbbd}.st2{fill:#231f20}.st3{fill:#ed2a27}</style><path class="st0" d="M-271.3 567.4l-81.7-.3L-196.8 313l81.1 1.3z"/><path class="st1" d="M-38.7 418.9h81.6l-62.7-104.7-81.3-1.2z"/><path class="st2" d="M-209.9 547.1v21.3h-2v-21.3l-18.8-29.3h1.7c.2 0 .4 0 .5.1l.4.4 16 25.1c.2.4.5.8.7 1.2l.6 1.2.6-1.2c.2-.4.4-.8.7-1.2l16-25.1c.2-.4.5-.5.8-.5h1.7l-18.9 29.3zm69.6-4c0 4-.6 7.5-1.7 10.7-1.2 3.2-2.8 5.9-4.9 8.1-2.1 2.2-4.6 4-7.5 5.2s-6.1 1.8-9.6 1.8-6.7-.6-9.6-1.8c-2.9-1.2-5.4-2.9-7.5-5.2-2.1-2.2-3.7-5-4.9-8.1-1.2-3.2-1.7-6.7-1.7-10.7 0-3.9.6-7.5 1.7-10.7 1.2-3.2 2.8-5.9 4.9-8.1 2.1-2.2 4.6-4 7.5-5.2s6.1-1.8 9.6-1.8 6.7.6 9.6 1.8c2.9 1.2 5.4 2.9 7.5 5.2 2.1 2.2 3.7 5 4.9 8.1 1.1 3.2 1.7 6.7 1.7 10.7zm-2.1 0c0-3.8-.5-7.1-1.6-10.1-1-3-2.5-5.5-4.4-7.6-1.9-2.1-4.2-3.7-6.8-4.8-2.6-1.1-5.6-1.7-8.8-1.7s-6.1.6-8.7 1.7c-2.6 1.1-4.9 2.7-6.8 4.8-1.9 2.1-3.4 4.6-4.5 7.6s-1.6 6.4-1.6 10.1c0 3.8.5 7.1 1.6 10.1s2.6 5.5 4.5 7.6c1.9 2.1 4.2 3.6 6.8 4.7 2.6 1.1 5.6 1.7 8.7 1.7 3.2 0 6.1-.6 8.8-1.7 2.6-1.1 4.9-2.7 6.8-4.7 1.9-2.1 3.4-4.6 4.4-7.6 1.1-3 1.6-6.3 1.6-10.1zm32.8 24.1c2.6 0 4.9-.5 7-1.4 2-.9 3.8-2.2 5.2-3.8 1.4-1.6 2.5-3.5 3.3-5.7.8-2.2 1.1-4.5 1.1-7v-31.6h2v31.6c0 2.7-.4 5.3-1.3 7.7s-2.1 4.5-3.7 6.2c-1.6 1.8-3.6 3.2-5.9 4.2-2.3 1-4.9 1.5-7.8 1.5-2.9 0-5.5-.5-7.8-1.5s-4.3-2.4-5.9-4.2c-1.6-1.8-2.8-3.9-3.7-6.2-.9-2.4-1.3-4.9-1.3-7.7v-31.6h2v31.5c0 2.5.4 4.8 1.1 7 .8 2.2 1.8 4.1 3.3 5.7 1.4 1.6 3.2 2.9 5.2 3.8 2.2 1.1 4.5 1.5 7.2 1.5zm36-22.6v23.8h-2v-50.6h12.2c5.5 0 9.7 1.1 12.5 3.2 2.9 2.1 4.3 5.4 4.3 9.7 0 2-.4 3.8-1.1 5.4-.7 1.6-1.8 3-3.1 4.2-1.3 1.2-3 2.1-4.9 2.8s-4 1.1-6.4 1.3c.4.2.8.6 1.3 1.1l18.8 22.8h-1.6c-.3 0-.5 0-.7-.1-.2-.1-.4-.2-.6-.5l-17.8-21.8c-.2-.3-.4-.5-.6-.6-.2-.2-.4-.3-.7-.4-.3-.1-.6-.2-.9-.2s-.8-.1-1.3-.1h-7.4zm0-1.5h9.6c2.4 0 4.5-.3 6.4-.8 1.9-.6 3.5-1.4 4.9-2.4 1.3-1.1 2.3-2.4 3.1-3.9.7-1.5 1.1-3.2 1.1-5.1 0-3.9-1.3-6.8-3.8-8.6-2.5-1.8-6.2-2.8-11-2.8h-10.2v23.6h-.1zm91-25.3v1.7H-1.1v48.8h-2v-48.8h-18.6v-1.7h39.1zm39 0v1.7H28.5v22.4H52v1.7H28.5v23.1h27.9l-.1 1.7H26.5v-50.6h29.9zm24.4 24.7L63 517.8h1.9c.2 0 .4.1.5.2.1.1.2.3.3.4l16.5 23.1c0-.2.2-.5.4-.8l16.1-22.3c.1-.1.2-.3.3-.4.1-.1.3-.2.5-.2h1.9l-17.8 24.5 18.7 26h-1.9c-.2 0-.4-.1-.5-.2-.1-.2-.2-.3-.4-.4l-17.2-24.3c0 .1-.1.2-.1.3s-.1.2-.2.3l-17 23.6-.4.4c-.1.1-.3.2-.5.2h-1.8l18.5-25.7zm63.5-24.7v1.7h-18.5v48.8h-2v-48.8h-18.6v-1.7h39.1zm-161.9-20.9H-32v-26.2h-25.2v26.2h-14.4V435h14.4v25.9H-32V435h14.5v61.9h-.1zM34.3 435v11.1H8.9v14.4h19.5v10.6H8.9v14.7h25.4v11.1H-5.6V435h39.9zm23.2 39v22.9H43.1V435h20.1c4.5 0 8.3.5 11.5 1.4s5.7 2.2 7.7 3.8 3.4 3.6 4.4 5.8c.9 2.2 1.4 4.7 1.4 7.3 0 2-.3 3.9-.8 5.7-.5 1.8-1.3 3.4-2.4 5-1.1 1.5-2.4 2.9-3.9 4.1-1.5 1.2-3.3 2.2-5.3 2.9 1 .5 1.9 1.1 2.7 1.8.8.7 1.6 1.6 2.2 2.6l13.2 21.5h-13c-2.4 0-4.1-.9-5.2-2.7l-10.3-18c-.5-.8-1-1.3-1.6-1.7s-1.4-.5-2.5-.5h-3.8zm0-9.9h5.8c2 0 3.6-.2 5-.7s2.5-1.2 3.4-2.1c.9-.9 1.5-1.9 1.9-3.1.4-1.2.6-2.4.6-3.8 0-2.7-.9-4.8-2.7-6.4-1.8-1.5-4.5-2.3-8.2-2.3h-5.8v18.4zm81.4-29.1v11.1h-25.4v14.4H133v10.6h-19.5v14.7h25.4v11.1H99V435h39.9z"/><path class="st3" d="M-131.8 497.4h-81.6L-100.9 313l81.1 1.3z"/><path class="st2" d="M-250.9 380.5l-63.2 99.9V272.7h63.2z"/></svg>