<svg id="objects" xmlns="http://www.w3.org/2000/svg" viewBox="0 0 721 537.3"><style>.st0{fill:#e85822}.st1{fill:#f5b335}.st2{fill:#f5dd48}.st3{fill:#cfd0d1}.st4{fill:#00253a}.st5{fill:#245370}.st6{fill:#3d7a90}.st7{font-family:&amp;apos;Oswald-Light&amp;apos;}.st8{font-size:67.6452px}.st9{letter-spacing:1}.st10{font-family:&amp;apos;OpenSans-Light&amp;apos;}.st11{font-size:29.9966px}.st12{opacity:.2;fill:url(#SVGID_1_)}</style><path transform="rotate(134.999 364.267 61.8)" class="st0" d="M320.6 18.1H408v87.4h-87.4z"/><path class="st1" d="M364.3 123.6l61.8-61.8 61.8 61.8-61.8 61.8z"/><path class="st2" d="M424.5 63.3l61.8-61.8 61.8 61.8-61.8 61.8zm-244.1 0l61.8-61.8L304 63.3l-61.8 61.8z"/><path transform="rotate(134.999 487.687 185.216)" class="st3" d="M444 141.5h87.4v87.4H444z"/><path transform="rotate(134.999 302.47 123.59)" class="st1" d="M258.8 79.9h87.4v87.4h-87.4z"/><path class="st3" d="M178.9 185.4l61.8-61.8 61.8 61.8-61.8 61.8z"/><path class="st4" d="M302.5 185.4l61.8-61.8 61.8 61.8-61.8 61.8z"/><path transform="rotate(134.999 426.068 247.16)" class="st5" d="M382.4 203.5h87.4v87.4h-87.4z"/><path class="st6" d="M425.9 308.8l61.8-61.8 61.8 61.8-61.8 61.8z"/><path class="st5" d="M240.7 247.2l61.8-61.8 61.8 61.8-61.8 61.7z"/><path transform="rotate(134.999 364.257 308.929)" class="st6" d="M320.6 265.2H408v87.4h-87.4z"/><path transform="rotate(134.999 240.674 308.948)" class="st6" d="M197 265.3h87.4v87.4H197z"/><text transform="translate(206.53 494.069)" class="st5 st7 st8 st9">TEXT SPACE</text><text transform="translate(244.949 537.307)" class="st6 st10 st11">LOREM IPSUM</text><radialGradient id="SVGID_1_" cx="190.229" cy="1402.724" r="31.998" gradientTransform="matrix(11.2657 0 0 1.0804 -1782.566 -1107.15)" gradientUnits="userSpaceOnUse"><stop offset="0"/><stop offset=".027" stop-color="#151515"/><stop offset=".096" stop-color="#464646"/><stop offset=".17" stop-color="#727272"/><stop offset=".248" stop-color="#989898"/><stop offset=".332" stop-color="#b8b8b8"/><stop offset=".421" stop-color="#d2d2d2"/><stop offset=".52" stop-color="#e6e6e6"/><stop offset=".631" stop-color="#f4f4f4"/><stop offset=".768" stop-color="#fdfdfd"/><stop offset="1" stop-color="#fff"/></radialGradient><path class="st12" d="M721 408.4c0 19.1-161.4 34.6-360.5 34.6C161.4 442.9 0 427.4 0 408.4c0-19.1 161.4-34.6 360.5-34.6S721 389.3 721 408.4z"/></svg>