<?xml version="1.0" encoding="utf-8"?>
<!-- Generator: Adobe Illustrator 19.0.0, SVG Export Plug-In . SVG Version: 6.00 Build 0)  -->
<svg version="1.1" id="Camada_1" xmlns="http://www.w3.org/2000/svg" xmlns:xlink="http://www.w3.org/1999/xlink" x="0px" y="0px"
	 viewBox="0 0 654.7 849.8" style="enable-background:new 0 0 654.7 849.8;" xml:space="preserve">
<style type="text/css">
	.st0{fill:url(#SVGID_1_);}
	.st1{fill:url(#SVGID_2_);}
	.st2{fill:url(#SVGID_3_);}
	.st3{fill:url(#SVGID_4_);}
	.st4{fill:url(#SVGID_5_);}
	.st5{fill:url(#SVGID_6_);}
	.st6{fill:url(#SVGID_7_);}
	.st7{fill:url(#SVGID_8_);}
	.st8{fill:url(#SVGID_9_);}
	.st9{fill:url(#SVGID_10_);}
	.st10{fill:#00386C;}
	.st11{fill:#FBB040;}
</style>
<g>
	<linearGradient id="SVGID_1_" gradientUnits="userSpaceOnUse" x1="298.4045" y1="521.6274" x2="298.4045" y2="6.2574">
		<stop  offset="0" style="stop-color:#00ABC5"/>
		<stop  offset="0.4388" style="stop-color:#00929E"/>
		<stop  offset="1" style="stop-color:#007B8D"/>
	</linearGradient>
	<path class="st0" d="M398.8,521.6c3.8-39.2-12.4-82.2-45.4-119.5c-0.8-0.9-1.5-1.7-2.3-2.6c-13.4-14.6-29.5-28.9-50.7-44.8
		c-11.7-8.8-24-17.4-35.8-25.7c-8.3-5.8-16.9-11.8-25.2-17.8c-35.3-25.6-74.1-57.7-94.1-101.9c-16.6-36.7-18.5-79.6-5.1-117.7
		c12.6-35.8,38.4-66.6,71.4-85.3c-0.8,5.3-0.9,10.7-0.3,16.2l-0.9-0.4l1.8,6.8c0.9,4.3,2.2,8.7,3.9,13.1
		c6.7,17.3,19.9,35.4,39.4,53.8c21,19.9,50.3,42.3,76.1,61.9c7.2,5.5,14.1,10.7,20.3,15.6c33.1,25.7,58,45.7,76.7,68.6
		c20.5,25.1,31.8,52.3,35.6,85.6c0,0.2,0.1,1,0.2,1.2c2.5,23.2,1.5,46.9-3,70.5C452.3,445.4,430.3,488.5,398.8,521.6z"/>
	<g>
		<linearGradient id="SVGID_2_" gradientUnits="userSpaceOnUse" x1="127.9325" y1="202.1402" x2="468.9066" y2="202.1402">
			<stop  offset="0" style="stop-color:#007B8D"/>
			<stop  offset="0.5612" style="stop-color:#00929E"/>
			<stop  offset="1" style="stop-color:#00ABC5"/>
		</linearGradient>
		<path class="st1" d="M401,347.9C286.2,237.1,232.8,85.3,219,40.8c-1.6-4.2-2.9-8.4-3.7-12.7c0-0.1,0-0.2,0-0.2s0,0,0,0
			c-1.8-9.1-1.7-18.5,0.9-27.9c0,0-120.7,130.6,82.3,357.3c0,0,0,0-0.1,0c18,13.5,35.1,27.8,50.3,44.4c0.8,0.8,1.5,1.7,2.3,2.5
			C359.2,378.3,377.8,360.3,401,347.9z"/>
		<linearGradient id="SVGID_3_" gradientUnits="userSpaceOnUse" x1="295.3044" y1="211.587" x2="386.8911" y2="158.7094">
			<stop  offset="0" style="stop-color:#007B8D"/>
			<stop  offset="0.2004" style="stop-color:#008393"/>
			<stop  offset="0.4235" style="stop-color:#00929E"/>
			<stop  offset="1" style="stop-color:#00AAB5"/>
		</linearGradient>
		<path class="st2" d="M353.8,170.7c-28.6-22.2-69.4-51.9-96.2-77.3c-15.7-14.9-31-33-38.6-52.6c13.9,44.6,67.3,196.3,182,307.2
			c19.8-10.5,43-17,66.3-20.8C459,254,416.8,219.6,353.8,170.7z"/>
		<linearGradient id="SVGID_4_" gradientUnits="userSpaceOnUse" x1="156.368" y1="236.7994" x2="303.7171" y2="151.7273">
			<stop  offset="0" style="stop-color:#007B8D"/>
			<stop  offset="0.3929" style="stop-color:#00929E"/>
			<stop  offset="1" style="stop-color:#6AC9C8"/>
		</linearGradient>
		<path class="st3" d="M216.1,0c-36.6,18.6-65.6,51.7-79.2,90.5c-13.6,38.7-11.7,82.7,5.3,120.1c19.5,43.1,56.9,75.5,95.2,103.3
			c20.2,14.6,41.1,28.5,61,43.5c0,0,0.1,0,0.1,0C95.4,130.6,216.1,0,216.1,0z"/>
		<linearGradient id="SVGID_5_" gradientUnits="userSpaceOnUse" x1="407.6951" y1="530.9697" x2="407.6951" y2="347.9395">
			<stop  offset="0" style="stop-color:#B1DED3"/>
			<stop  offset="0.4388" style="stop-color:#00B3B5"/>
			<stop  offset="1" style="stop-color:#007B8D"/>
		</linearGradient>
		<path class="st4" d="M394.2,531c36.3-35,60.8-81.7,70.3-131.1c-23-15.7-44.1-33.2-63.4-51.9c-23.3,12.4-41.8,30.4-50.1,56.3
			C381.7,439,402.7,485.5,394.2,531z"/>
		<linearGradient id="SVGID_6_" gradientUnits="userSpaceOnUse" x1="434.9677" y1="399.8451" x2="434.9677" y2="327.1234">
			<stop  offset="0" style="stop-color:#00ABC5"/>
			<stop  offset="0.4388" style="stop-color:#00929E"/>
			<stop  offset="1" style="stop-color:#007B8D"/>
		</linearGradient>
		<path class="st5" d="M464.5,399.8c4.5-23.5,5.7-47.7,3.1-71.5c0-0.4-0.1-0.8-0.2-1.2c-23.3,3.8-46.5,10.3-66.3,20.8
			C420.4,366.6,441.5,384.2,464.5,399.8z"/>
	</g>
	<g>
		<linearGradient id="SVGID_7_" gradientUnits="userSpaceOnUse" x1="141.8226" y1="318.5453" x2="292.7219" y2="318.5453">
			<stop  offset="0" style="stop-color:#FFCB05"/>
			<stop  offset="0.6071" style="stop-color:#F37021"/>
			<stop  offset="1" style="stop-color:#F04E23"/>
		</linearGradient>
		<path class="st6" d="M292.7,376c-46.4-34.2-90.5-55.2-139.2-114.9c-8.6,27.2-12.6,56.3-11.5,85C175.7,337.5,233,333.4,292.7,376z"
			/>
		<linearGradient id="SVGID_8_" gradientUnits="userSpaceOnUse" x1="142.0064" y1="498.8301" x2="372.7605" y2="498.8301">
			<stop  offset="0" style="stop-color:#F04E23"/>
			<stop  offset="0.3929" style="stop-color:#F37021"/>
			<stop  offset="1" style="stop-color:#FBB040"/>
		</linearGradient>
		<path class="st7" d="M312.3,638.4c-0.7,6.5-2.3,12.8-5.4,18.7c25.1-30.7,47.8-64.3,59-102.3c11.2-38,9.6-81.2-11.4-114.8
			c-5.2-8.3-11.4-16.5-18.3-24.4c-3.6-4.1-7.2-8-10.9-11.7c-0.5-0.5-0.9-0.9-1.4-1.4c0,0-0.1-0.1-0.1-0.1
			c-9.1-9-18.8-17.3-28.4-24.5c-0.9-0.7-1.8-1.3-2.7-2c-59.8-42.6-117-38.6-150.7-30c0,0,0,0,0,0
			C316.7,489.1,319.8,596.8,312.3,638.4z"/>
		<linearGradient id="SVGID_9_" gradientUnits="userSpaceOnUse" x1="142.0066" y1="492.2291" x2="314.4126" y2="492.2291">
			<stop  offset="0" style="stop-color:#F04E23"/>
			<stop  offset="0.3929" style="stop-color:#F37021"/>
			<stop  offset="1" style="stop-color:#FFD400"/>
		</linearGradient>
		<path class="st8" d="M142,346L142,346c0,0,76.9,66.7,131.6,194c0,0,0,0,0,0c14.5,14,25.7,31.1,31.3,50c4.7,15.8,9,32.5,7.4,48.3
			C319.8,596.8,316.7,489.1,142,346z"/>
		<linearGradient id="SVGID_10_" gradientUnits="userSpaceOnUse" x1="207.7842" y1="540.0863" x2="207.7842" y2="346.0413">
			<stop  offset="0" style="stop-color:#F04E23"/>
			<stop  offset="0.3929" style="stop-color:#F37021"/>
			<stop  offset="1" style="stop-color:#FBB040"/>
		</linearGradient>
		<path class="st9" d="M142,346c1.9,49.9,19.3,98.4,54.6,133.1c16.5,16.2,52.4,39.9,70.2,54.8c2.3,2,4.6,4,6.8,6.1c0,0,0,0,0,0
			C218.9,412.8,142,346,142,346z"/>
	</g>
	<g>
		<path class="st10" d="M15.8,696.1c-2.4,0-4.4,2-4.4,4.4v54.1c0,2.4,2,4.4,4.4,4.4h67.4v9.1H15.8c-7.5,0-13.5-6-13.5-13.5v-54.1
			c0-7.5,6-13.5,13.5-13.5h67.4v9.1H15.8z"/>
		<path class="st10" d="M162.2,687c7.5,0,13.5,6,13.5,13.5v54.1c0,7.5-6,13.5-13.5,13.5h-54.1c-7.5,0-13.5-6-13.5-13.5v-54.1
			c0-7.5,6-13.5,13.5-13.5H162.2z M162.2,758.9c2.4,0,4.4-2,4.4-4.4v-54.1c0-2.4-2-4.4-4.4-4.4h-54.1c-2.4,0-4.4,2-4.4,4.4v54.1
			c0,2.4,2,4.4,4.4,4.4H162.2z"/>
		<path class="st10" d="M268,687h12.5v81.1h-9.1v-70.7l-37.1,44l-37.1-44v70.7h-9.1V687h12.5l33.7,40.1L268,687z"/>
		<path class="st10" d="M360.3,687.1c7.5,0,13.5,6.1,13.5,13.5v23.8c0,7.4-6,13.5-13.5,13.5h-54.1c-1,0-2.7-0.2-4.4-0.4v30.6h-9.1
			v-81H360.3z M364.7,700.6c0-2.4-2-4.4-4.4-4.4h-54.1c-2.4,0-4.4,2-4.4,4.4v23.8c0,2.4,2,4.3,4.4,4.3h54.1c2.4,0,4.4-1.9,4.4-4.3
			V700.6z"/>
		<path class="st10" d="M450.7,687c7.5,0,13.5,6,13.5,13.5v67.6h-9.1v-29.6h-62.9v29.6h-9.1v-67.6c0-7.5,6-13.5,13.5-13.5H450.7z
			 M455.1,729.3v-28.8c0-2.4-2-4.4-4.4-4.4h-54.1c-2.4,0-4.4,2-4.4,4.4v28.8H455.1z"/>
		<path class="st10" d="M549.1,687h9.1v81.1h-12.5l-59.5-70.7v70.7h-9.1V687h12.5l59.5,70.7V687z"/>
		<path class="st10" d="M650.1,687l-37.3,50.6v30.5h-9.1v-30.5c-12.1-16.6-25-34-37.3-50.6h10.5l31.4,39.7
			c9.8-12.6,21.2-27,31.1-39.7H650.1z"/>
	</g>
	<g>
		<path class="st11" d="M43.9,798.7v25.1c0,5-4,9-9,9H0v-57.1h6.1v14.1h28.8C39.8,789.7,43.9,793.8,43.9,798.7z M37.8,798.7
			c0-1.6-1.3-2.9-2.9-2.9H9.1c-1.6,0-3,1.3-3,2.9v25.1c0,1.6,1.3,2.9,3,2.9h25.8c1.6,0,2.9-1.3,2.9-2.9V798.7z"/>
		<path class="st11" d="M93.3,789.7v34.1c0,5-4,9-9.1,9H58.4c-5,0-9-4-9-9v-34.1h6.1v34.1c0,1.6,1.3,2.9,2.9,2.9h25.8
			c1.6,0,3-1.3,3-2.9v-34.1H93.3z"/>
		<path class="st11" d="M143.3,799.3h-6.2v-0.6c0-1.6-1.3-2.9-2.9-2.9h-25.8c-1.6,0-2.9,1.3-2.9,2.9v6.6c0,1.6,1.3,2.9,2.9,2.9h25.8
			c5,0,9.1,4,9.1,9v6.6c0,5-4,9-9.1,9h-25.8c-5,0-9-4-9-9v-0.6h6.1v0.6c0,1.6,1.3,2.9,2.9,2.9h25.8c1.6,0,2.9-1.3,2.9-2.9v-6.6
			c0-1.6-1.3-2.9-2.9-2.9h-25.8c-5,0-9-4-9-9v-6.6c0-5,4-9,9-9h25.8c5,0,9.1,4,9.1,9V799.3z"/>
		<path class="st11" d="M156.8,775.7v6.1h-6.1v-6.1H156.8z M150.7,789.7h6.1v43h-6.1V789.7z"/>
		<path class="st11" d="M209,798.7v34.1h-6.1v-34.1c0-1.6-1.3-2.9-2.9-2.9h-25.8c-1.6,0-3,1.3-3,2.9v34.1h-6.1v-43H200
			C205,789.7,209,793.8,209,798.7z"/>
		<path class="st11" d="M260.4,798.7v15.6h-37.8v9.5c0,1.6,1.3,2.9,2.9,2.9h34.9v6.1h-34.9c-5,0-9-4-9-9v-25.1c0-5,4-9,9-9h25.8
			C256.4,789.7,260.4,793.8,260.4,798.7z M254.3,808.2v-9.5c0-1.6-1.3-2.9-2.9-2.9h-25.8c-1.6,0-2.9,1.3-2.9,2.9v9.5H254.3z"/>
		<path class="st11" d="M311.5,799.3h-6.2v-0.6c0-1.6-1.3-2.9-2.9-2.9h-25.8c-1.6,0-2.9,1.3-2.9,2.9v6.6c0,1.6,1.3,2.9,2.9,2.9h25.8
			c5,0,9.1,4,9.1,9v6.6c0,5-4,9-9.1,9h-25.8c-5,0-9-4-9-9v-0.6h6.1v0.6c0,1.6,1.3,2.9,2.9,2.9h25.8c1.6,0,2.9-1.3,2.9-2.9v-6.6
			c0-1.6-1.3-2.9-2.9-2.9h-25.8c-5,0-9-4-9-9v-6.6c0-5,4-9,9-9h25.8c5,0,9.1,4,9.1,9V799.3z"/>
		<path class="st11" d="M362.4,799.3h-6.2v-0.6c0-1.6-1.3-2.9-2.9-2.9h-25.8c-1.6,0-2.9,1.3-2.9,2.9v6.6c0,1.6,1.3,2.9,2.9,2.9h25.8
			c5,0,9.1,4,9.1,9v6.6c0,5-4,9-9.1,9h-25.8c-5,0-9-4-9-9v-0.6h6.1v0.6c0,1.6,1.3,2.9,2.9,2.9h25.8c1.6,0,2.9-1.3,2.9-2.9v-6.6
			c0-1.6-1.3-2.9-2.9-2.9h-25.8c-5,0-9-4-9-9v-6.6c0-5,4-9,9-9h25.8c5,0,9.1,4,9.1,9V799.3z"/>
		<path class="st11" d="M396.1,795.8v28c0,1.6,1.3,2.9,2.9,2.9h15.7v6.1H399c-5,0-9-4-9-9v-48.2h6.1v14.1h18.6v6.1H396.1z"/>
		<path class="st11" d="M464.2,798.7v34.1h-34.9c-5,0-9-4-9-9v-15.6h37.7v-9.5c0-1.6-1.3-2.9-2.9-2.9h-34.8v-6.1h34.8
			C460.2,789.7,464.2,793.8,464.2,798.7z M458.1,814.3h-31.6v9.5c0,1.6,1.3,2.9,2.9,2.9h28.7V814.3z"/>
		<path class="st11" d="M505.8,849.8H479v-6.2h26.9c1.6,0,2.9-1.3,2.9-2.9v-7.9H480c-5,0-9-4-9-9v-25.1c0-5,4-9,9-9h25.8
			c5,0,9,4,9,9v42C514.8,845.8,510.9,849.8,505.8,849.8z M505.8,826.7c1.6,0,2.9-1.3,2.9-2.9v-25.1c0-1.6-1.3-2.9-2.9-2.9H480
			c-1.6,0-2.9,1.3-2.9,2.9v25.1c0,1.6,1.3,2.9,2.9,2.9H505.8z"/>
		<path class="st11" d="M528.6,775.7v48.2c0,1.6,1.3,2.9,2.9,2.9h7.3v6.1h-7.3c-5,0-9-4-9-9v-48.2H528.6z"/>
		<path class="st11" d="M551,775.7v6.1h-6.1v-6.1H551z M544.9,789.7h6.1v43h-6.1V789.7z"/>
		<path class="st11" d="M603.3,798.7v34.1h-6.1v-34.1c0-1.6-1.3-2.9-2.9-2.9h-25.8c-1.6,0-3,1.3-3,2.9v34.1h-6.1v-43h34.9
			C599.2,789.7,603.3,793.8,603.3,798.7z"/>
		<path class="st11" d="M654.7,798.7v15.6h-37.8v9.5c0,1.6,1.3,2.9,2.9,2.9h34.9v6.1h-34.9c-5,0-9-4-9-9v-25.1c0-5,4-9,9-9h25.8
			C650.7,789.7,654.7,793.8,654.7,798.7z M648.5,808.2v-9.5c0-1.6-1.3-2.9-2.9-2.9h-25.8c-1.6,0-2.9,1.3-2.9,2.9v9.5H648.5z"/>
	</g>
</g>
</svg>
