<?xml version="1.0" encoding="utf-8"?>
<!-- Generator: Adobe Illustrator 19.0.0, SVG Export Plug-In . SVG Version: 6.00 Build 0)  -->
<svg version="1.1" id="objects" xmlns="http://www.w3.org/2000/svg" xmlns:xlink="http://www.w3.org/1999/xlink" x="0px" y="0px"
	 viewBox="-370 200.3 458.1 440.6" style="enable-background:new -370 200.3 458.1 440.6;" xml:space="preserve">
<style type="text/css">
	.st0{enable-background:new    ;}
	.st1{fill:#715474;}
	.st2{fill:#947F97;}
	.st3{opacity:0.3;fill:url(#SVGID_1_);enable-background:new    ;}
	.st4{fill:url(#SVGID_2_);}
	.st5{fill:url(#SVGID_3_);}
	.st6{fill:url(#SVGID_4_);}
	.st7{fill:url(#SVGID_5_);}
	.st8{fill:url(#SVGID_6_);}
	.st9{fill:url(#SVGID_7_);}
	.st10{opacity:0.8;fill:url(#SVGID_8_);enable-background:new    ;}
	.st11{opacity:0.8;fill:url(#SVGID_9_);enable-background:new    ;}
	.st12{fill:url(#SVGID_10_);}
	.st13{fill:url(#SVGID_11_);}
	.st14{fill:url(#SVGID_12_);}
	.st15{opacity:0.9;}
	.st16{fill:url(#SVGID_13_);}
	.st17{fill:url(#SVGID_14_);}
	.st18{opacity:0.8;}
	.st19{fill:url(#SVGID_15_);}
	.st20{fill:url(#SVGID_16_);}
</style>
<g class="st0">
	<path class="st1" d="M-273.2,536.2h24.6v7.2h-8.3v43.3h-7.9v-43.3h-8.3V536.2z"/>
	<path class="st1" d="M-236.2,557.6h10.9v7.2h-10.9v14.8h13.7v7.2h-21.7v-50.6h21.7v7.2h-13.7V557.6z"/>
	<path class="st1" d="M-190.2,536.2l-8.3,24.6l8.9,26h-8.4l-6.4-20h-0.1l-6.5,20h-7.4l8.9-26l-8.3-24.6h8.2l5.9,18.6h0.1l6.1-18.6
		H-190.2z"/>
	<path class="st1" d="M-187,536.2h24.6v7.2h-8.3v43.3h-7.9v-43.3h-8.3V536.2z"/>
	<path class="st1" d="M-135.2,535.7c7.7,0,11.7,4.6,11.7,12.7v1.6h-7.5v-2.1c0-3.6-1.4-5-4-5s-4,1.4-4,5c0,3.7,1.6,6.4,6.8,11
		c6.6,5.9,8.7,10,8.7,15.8c0,8.1-4,12.7-11.8,12.7s-11.8-4.6-11.8-12.7v-3.1h7.5v3.6c0,3.6,1.6,4.9,4.1,4.9s4.1-1.3,4.1-4.9
		c0-3.7-1.6-6.4-6.8-11c-6.6-5.9-8.7-10-8.7-15.8C-146.9,540.3-142.9,535.7-135.2,535.7z"/>
	<path class="st1" d="M-94.4,548.7v6.6c0,8.1-3.9,12.5-11.8,12.5h-3.8v19h-7.9v-50.6h11.7C-98.3,536.2-94.4,540.7-94.4,548.7z
		 M-110,543.5v17.1h3.8c2.5,0,3.9-1.2,3.9-4.8v-7.6c0-3.6-1.4-4.8-3.9-4.8H-110z"/>
	<path class="st1" d="M-65,586.8h-8l-1.4-9.2h-9.8l-1.4,9.2h-7.3l8.1-50.6h11.6L-65,586.8z M-83.1,570.8h7.7l-3.8-25.6h-0.1
		L-83.1,570.8z"/>
	<path class="st1" d="M-37.4,568v6.7c0,8.1-4,12.7-11.8,12.7c-7.8,0-11.8-4.6-11.8-12.7v-26.3c0-8.1,4-12.7,11.8-12.7
		c7.8,0,11.8,4.6,11.8,12.7v4.9h-7.5v-5.4c0-3.6-1.6-5-4.1-5c-2.5,0-4.1,1.4-4.1,5v27.3c0,3.6,1.6,4.9,4.1,4.9
		c2.5,0,4.1-1.3,4.1-4.9V568H-37.4z"/>
	<path class="st1" d="M-23.7,557.6h10.9v7.2h-10.9v14.8H-10v7.2h-21.7v-50.6H-10v7.2h-13.7V557.6z"/>
</g>
<g class="st0">
	<path class="st2" d="M-232.5,626.9V606h1.5v19.5h9.9v1.4H-232.5z"/>
	<path class="st2" d="M-200,616.4c0,3.3-0.8,5.9-2.5,7.9c-1.7,1.9-3.9,2.9-6.9,2.9c-2.9,0-5.2-1-6.8-2.9c-1.7-1.9-2.5-4.6-2.5-7.9
		c0-3.3,0.8-5.9,2.5-7.8c1.7-1.9,4-2.9,6.8-2.9c2.9,0,5.2,1,6.8,2.9S-200,613.1-200,616.4z M-217.1,616.4c0,3,0.7,5.3,2,6.9
		c1.3,1.6,3.2,2.4,5.7,2.4c2.5,0,4.4-0.8,5.8-2.4s2-3.9,2-6.9c0-3-0.7-5.3-2-6.9c-1.3-1.6-3.2-2.4-5.7-2.4c-2.5,0-4.4,0.8-5.7,2.4
		C-216.4,611.2-217.1,613.5-217.1,616.4z"/>
	<path class="st2" d="M-193.7,617.8v9.1h-1.5V606h5c2.6,0,4.5,0.5,5.7,1.4c1.2,1,1.9,2.4,1.9,4.3c0,1.4-0.4,2.6-1.1,3.5
		s-1.9,1.7-3.4,2.1l5.7,9.5h-1.7l-5.4-9.1H-193.7z M-193.7,616.5h4c1.8,0,3.1-0.4,4.1-1.2c1-0.8,1.5-1.9,1.5-3.5
		c0-1.6-0.5-2.7-1.4-3.5c-1-0.7-2.5-1.1-4.7-1.1h-3.5V616.5z"/>
	<path class="st2" d="M-166.4,626.9h-11.4V606h11.4v1.3h-9.9v7.9h9.4v1.3h-9.4v8.9h9.9V626.9z"/>
	<path class="st2" d="M-152.5,626.9l-7.8-19.3h-0.1c0.1,1.2,0.1,2.4,0.1,3.6v15.6h-1.4V606h2.3l7.4,18.4h0.1l7.4-18.4h2.2v20.9h-1.5
		v-15.8c0-1.1,0.1-2.2,0.2-3.4h-0.1l-7.8,19.2H-152.5z"/>
	<path class="st2" d="M-128.9,626.9V606h1.5v20.9H-128.9z"/>
	<path class="st2" d="M-109,612c0,2-0.7,3.6-2.1,4.6c-1.4,1.1-3.3,1.6-5.8,1.6h-3.2v8.6h-1.5V606h5.1C-111.5,606-109,608-109,612z
		 M-120.1,617h2.9c2.3,0,4-0.4,5.1-1.2c1-0.8,1.6-2,1.6-3.8c0-1.6-0.5-2.8-1.5-3.6c-1-0.8-2.5-1.2-4.6-1.2h-3.5V617z"/>
	<path class="st2" d="M-92.9,621.5c0,1.7-0.6,3.1-1.9,4.1c-1.3,1-3,1.5-5.1,1.5c-2.5,0-4.5-0.3-5.9-0.8v-1.5c1.5,0.6,3.4,1,5.8,1
		c1.7,0,3.1-0.4,4.1-1.2s1.5-1.8,1.5-3.1c0-0.8-0.2-1.4-0.5-2s-0.9-1-1.6-1.4c-0.8-0.4-1.9-0.9-3.3-1.4c-2.1-0.7-3.6-1.5-4.4-2.4
		c-0.8-0.9-1.2-2-1.2-3.4c0-1.6,0.6-2.8,1.8-3.8c1.2-1,2.8-1.5,4.7-1.5c2,0,3.8,0.4,5.5,1.1l-0.5,1.3c-1.7-0.7-3.4-1.1-5-1.1
		c-1.5,0-2.8,0.4-3.7,1.1c-0.9,0.7-1.4,1.7-1.4,2.9c0,0.8,0.1,1.4,0.4,1.9c0.3,0.5,0.7,0.9,1.4,1.3c0.6,0.4,1.7,0.9,3.3,1.4
		c1.6,0.6,2.8,1.1,3.7,1.6s1.4,1.1,1.8,1.8S-92.9,620.6-92.9,621.5z"/>
	<path class="st2" d="M-73.2,606v13.5c0,2.4-0.7,4.3-2.1,5.6c-1.4,1.4-3.3,2-5.8,2c-2.4,0-4.3-0.7-5.7-2s-2-3.2-2-5.7V606h1.5v13.5
		c0,2,0.6,3.6,1.7,4.7c1.1,1.1,2.7,1.7,4.7,1.7c2,0,3.5-0.5,4.6-1.6s1.6-2.6,1.6-4.6V606H-73.2z"/>
	<path class="st2" d="M-58.3,626.9l-7.8-19.3h-0.1c0.1,1.2,0.1,2.4,0.1,3.6v15.6h-1.4V606h2.3l7.4,18.4h0.1l7.4-18.4h2.2v20.9h-1.5
		v-15.8c0-1.1,0.1-2.2,0.2-3.4h-0.1l-7.8,19.2H-58.3z"/>
</g>
<radialGradient id="SVGID_1_" cx="-637.0181" cy="-731.5328" r="20.3234" gradientTransform="matrix(11.2656 0 0 -0.837 7035.3916 -115.7029)" gradientUnits="userSpaceOnUse">
	<stop  offset="0" style="stop-color:#000000"/>
	<stop  offset="6.732470e-02" style="stop-color:#282828"/>
	<stop  offset="0.1623" style="stop-color:#5A5A5A"/>
	<stop  offset="0.2621" style="stop-color:#868686"/>
	<stop  offset="0.3649" style="stop-color:#ACACAC"/>
	<stop  offset="0.4715" style="stop-color:#CACACA"/>
	<stop  offset="0.5832" style="stop-color:#E1E1E1"/>
	<stop  offset="0.702" style="stop-color:#F2F2F2"/>
	<stop  offset="0.833" style="stop-color:#FCFCFC"/>
	<stop  offset="1" style="stop-color:#FFFFFF"/>
</radialGradient>
<path class="st3" d="M88.1,496.6c0,9.4-102.6,17-229.1,17s-229.1-7.6-229.1-17s102.6-17,229.1-17C-14.4,479.6,88.1,487.2,88.1,496.6
	z"/>
<g>
	<g>
		
			<linearGradient id="SVGID_2_" gradientUnits="userSpaceOnUse" x1="-72.5255" y1="370.2809" x2="-72.6745" y2="375.2791" gradientTransform="matrix(1 0 0 -1 0 840.47)">
			<stop  offset="0.2541" style="stop-color:#FFFFFF;stop-opacity:0.7"/>
			<stop  offset="0.7467" style="stop-color:#FFFFFF;stop-opacity:0.7"/>
			<stop  offset="0.823" style="stop-color:#FAFBFC;stop-opacity:0.6397"/>
			<stop  offset="0.9144" style="stop-color:#EBF0F5;stop-opacity:0.5676"/>
			<stop  offset="1" style="stop-color:#D7E0EB;stop-opacity:0.5"/>
		</linearGradient>
		<path class="st4" d="M-72.6,470.2c3.2,0,3.2-5,0-5C-75.8,465.2-75.8,470.2-72.6,470.2L-72.6,470.2z"/>
	</g>
</g>
<g>
	
		<linearGradient id="SVGID_3_" gradientUnits="userSpaceOnUse" x1="-65.293" y1="628.4635" x2="-97.8201" y2="597.6948" gradientTransform="matrix(1 0 0 -1 0 840.47)">
		<stop  offset="0.2581" style="stop-color:#144851"/>
		<stop  offset="0.4809" style="stop-color:#11414A"/>
		<stop  offset="0.7983" style="stop-color:#082F38"/>
		<stop  offset="1" style="stop-color:#002028"/>
	</linearGradient>
	<polygon class="st5" points="-102.6,200.3 -64,257.8 -140.9,254.9 	"/>
	<g>
		
			<linearGradient id="SVGID_4_" gradientUnits="userSpaceOnUse" x1="-142.9537" y1="597.1826" x2="22.8875" y2="479.1803" gradientTransform="matrix(1 0 0 -1 0 840.47)">
			<stop  offset="0" style="stop-color:#58CDCD"/>
			<stop  offset="0.1255" style="stop-color:#54CCCC"/>
			<stop  offset="0.262" style="stop-color:#46C8C8"/>
			<stop  offset="0.4032" style="stop-color:#31C2C2"/>
			<stop  offset="0.4187" style="stop-color:#2EC1C1"/>
			<stop  offset="0.8768" style="stop-color:#239191"/>
		</linearGradient>
		<polygon class="st6" points="-119.4,219.6 -176.1,263 4.6,387.6 4.6,305 		"/>
		
			<linearGradient id="SVGID_5_" gradientUnits="userSpaceOnUse" x1="-67.0353" y1="453.63" x2="2.1923" y2="453.63" gradientTransform="matrix(1 0 0 -1 0 840.47)">
			<stop  offset="0.2581" style="stop-color:#144851"/>
			<stop  offset="0.4809" style="stop-color:#11414A"/>
			<stop  offset="0.7983" style="stop-color:#082F38"/>
			<stop  offset="1" style="stop-color:#002028"/>
		</linearGradient>
		<polygon class="st7" points="4.6,387.6 -52.1,424.5 -51,349.2 		"/>
	</g>
	<g>
		
			<linearGradient id="SVGID_6_" gradientUnits="userSpaceOnUse" x1="-143.6223" y1="596.243" x2="22.2189" y2="478.2406" gradientTransform="matrix(1 0 0 -1 0 840.47)">
			<stop  offset="7.389150e-02" style="stop-color:#239191"/>
			<stop  offset="0.4187" style="stop-color:#2EC1C1"/>
			<stop  offset="0.9212" style="stop-color:#58CDCD"/>
		</linearGradient>
		<polygon class="st8" points="-119.4,219.6 -176.1,263 4.6,387.6 -64,299.2 		"/>
		
			<linearGradient id="SVGID_7_" gradientUnits="userSpaceOnUse" x1="-67.0353" y1="453.63" x2="2.1923" y2="453.63" gradientTransform="matrix(1 0 0 -1 0 840.47)">
			<stop  offset="0.2581" style="stop-color:#144851"/>
			<stop  offset="0.4809" style="stop-color:#11414A"/>
			<stop  offset="0.7983" style="stop-color:#082F38"/>
			<stop  offset="1" style="stop-color:#002028"/>
		</linearGradient>
		<polygon class="st9" points="4.6,387.6 -52.1,424.5 -51,349.2 		"/>
	</g>
	<g>
		
			<linearGradient id="SVGID_8_" gradientUnits="userSpaceOnUse" x1="-87.0712" y1="428.1942" x2="-167.7237" y2="291.4352" gradientTransform="matrix(1 0 0 -1 0 840.47)">
			<stop  offset="0.1133" style="stop-color:#DB6FBB"/>
			<stop  offset="0.3221" style="stop-color:#D96CB8"/>
			<stop  offset="0.4931" style="stop-color:#D162B0"/>
			<stop  offset="0.6508" style="stop-color:#C550A3"/>
			<stop  offset="0.8004" style="stop-color:#B3388F"/>
			<stop  offset="0.943" style="stop-color:#9D1A77"/>
			<stop  offset="1" style="stop-color:#920B6B"/>
		</linearGradient>
		<polygon class="st10" points="-16.7,372.6 -72.2,334.6 -182.7,494.8 -100.1,494.8 		"/>
		
			<linearGradient id="SVGID_9_" gradientUnits="userSpaceOnUse" x1="-109.093" y1="367.4115" x2="-39.6451" y2="495.7601" gradientTransform="matrix(1 0 0 -1 0 840.47)">
			<stop  offset="0.1133" style="stop-color:#DB6FBB"/>
			<stop  offset="1" style="stop-color:#920B6B"/>
		</linearGradient>
		<polygon class="st11" points="-16.7,372.6 -72.2,334.6 -85.8,414.7 -100.1,494.8 		"/>
		
			<linearGradient id="SVGID_10_" gradientUnits="userSpaceOnUse" x1="-223.1201" y1="340.701" x2="-187.5023" y2="393.2378" gradientTransform="matrix(1 0 0 -1 0 840.47)">
			<stop  offset="0.2581" style="stop-color:#144851"/>
			<stop  offset="0.4809" style="stop-color:#11414A"/>
			<stop  offset="0.7983" style="stop-color:#082F38"/>
			<stop  offset="1" style="stop-color:#002028"/>
		</linearGradient>
		<polygon class="st12" points="-182.7,494.8 -219.7,439.2 -144.4,439.2 		"/>
	</g>
	<g>
		
			<linearGradient id="SVGID_11_" gradientUnits="userSpaceOnUse" x1="-150.6192" y1="399.197" x2="-296.5549" y2="492.1827" gradientTransform="matrix(1 0 0 -1 0 840.47)">
			<stop  offset="2.951320e-02" style="stop-color:#58CDCD"/>
			<stop  offset="0.1461" style="stop-color:#54CCCC"/>
			<stop  offset="0.273" style="stop-color:#46C8C8"/>
			<stop  offset="0.4043" style="stop-color:#31C2C2"/>
			<stop  offset="0.4187" style="stop-color:#2EC1C1"/>
			<stop  offset="1" style="stop-color:#239191"/>
		</linearGradient>
		<polygon class="st13" points="-168.7,474.8 -129.7,417.9 -289.9,307.5 -289.9,390 		"/>
		
			<linearGradient id="SVGID_12_" gradientUnits="userSpaceOnUse" x1="-287.8808" y1="562.7687" x2="-236.9921" y2="535.5698" gradientTransform="matrix(1 0 0 -1 0 840.47)">
			<stop  offset="0.2581" style="stop-color:#144851"/>
			<stop  offset="0.4809" style="stop-color:#11414A"/>
			<stop  offset="0.7983" style="stop-color:#082F38"/>
			<stop  offset="1" style="stop-color:#002028"/>
		</linearGradient>
		<polygon class="st14" points="-289.9,307.5 -231.9,268.2 -235.2,345.3 		"/>
	</g>
	<g class="st15">
		
			<linearGradient id="SVGID_13_" gradientUnits="userSpaceOnUse" x1="-150.6192" y1="399.197" x2="-296.5549" y2="492.1827" gradientTransform="matrix(1 0 0 -1 0 840.47)">
			<stop  offset="9.852221e-02" style="stop-color:#239191"/>
			<stop  offset="0.4187" style="stop-color:#2EC1C1"/>
			<stop  offset="0.9359" style="stop-color:#58CDCD"/>
		</linearGradient>
		<polygon class="st16" points="-168.7,474.8 -129.7,417.9 -289.9,307.5 -219.6,403.4 		"/>
		
			<linearGradient id="SVGID_14_" gradientUnits="userSpaceOnUse" x1="-287.8808" y1="562.7687" x2="-236.9921" y2="535.5698" gradientTransform="matrix(1 0 0 -1 0 840.47)">
			<stop  offset="0.2581" style="stop-color:#144851"/>
			<stop  offset="0.4809" style="stop-color:#11414A"/>
			<stop  offset="0.7983" style="stop-color:#082F38"/>
			<stop  offset="1" style="stop-color:#002028"/>
		</linearGradient>
		<polygon class="st17" points="-289.9,307.5 -231.9,268.2 -235.2,345.3 		"/>
	</g>
	<g class="st18">
		
			<linearGradient id="SVGID_15_" gradientUnits="userSpaceOnUse" x1="-219.1113" y1="520.9365" x2="-147.8081" y2="646.0092" gradientTransform="matrix(1 0 0 -1 0 840.47)">
			<stop  offset="0.1576" style="stop-color:#920B6B"/>
			<stop  offset="0.9852" style="stop-color:#DB6FBB"/>
		</linearGradient>
		<polygon class="st19" points="-269.1,322.1 -213.1,360.4 -102.6,200.3 -185.2,200.3 		"/>
	</g>
	<g class="st18">
		
			<linearGradient id="SVGID_16_" gradientUnits="userSpaceOnUse" x1="-213.6538" y1="517.8251" x2="-142.3505" y2="642.8979" gradientTransform="matrix(1 0 0 -1 0 840.47)">
			<stop  offset="0.2906" style="stop-color:#DB6FBB"/>
			<stop  offset="0.9803" style="stop-color:#920B6B"/>
		</linearGradient>
		<polygon class="st20" points="-195.7,273.5 -213.1,360.4 -102.6,200.3 -185.2,200.3 		"/>
	</g>
</g>
</svg>
