<?xml version="1.0" encoding="utf-8"?>
<!-- Generator: Adobe Illustrator 19.0.0, SVG Export Plug-In . SVG Version: 6.00 Build 0)  -->
<svg version="1.1" id="object" xmlns="http://www.w3.org/2000/svg" xmlns:xlink="http://www.w3.org/1999/xlink" x="0px" y="0px"
	 viewBox="-353 272.7 491.9 296.2" style="enable-background:new -353 272.7 491.9 296.2;" xml:space="preserve">
<style type="text/css">
	.st0{fill:#DC2A25;}
	.st1{fill:#B9BBBD;}
	.st2{fill:#231F20;}
	.st3{fill:#ED2A27;}
</style>
<g>
	<polygon class="st0" points="-271.3,567.4 -353,567.1 -196.8,313 -115.7,314.3 	"/>
	<polygon class="st1" points="-38.7,418.9 42.9,418.9 -19.8,314.2 -101.1,313 	"/>
	<g>
		<path class="st2" d="M-209.9,547.1v21.3h-2v-21.3l-18.8-29.3h1.7c0.2,0,0.4,0,0.5,0.1c0.1,0.1,0.2,0.2,0.4,0.4l16,25.1
			c0.2,0.4,0.5,0.8,0.7,1.2s0.4,0.8,0.6,1.2c0.2-0.4,0.4-0.8,0.6-1.2c0.2-0.4,0.4-0.8,0.7-1.2l16-25.1c0.2-0.4,0.5-0.5,0.8-0.5h1.7
			L-209.9,547.1z"/>
		<path class="st2" d="M-140.3,543.1c0,4-0.6,7.5-1.7,10.7c-1.2,3.2-2.8,5.9-4.9,8.1c-2.1,2.2-4.6,4-7.5,5.2s-6.1,1.8-9.6,1.8
			s-6.7-0.6-9.6-1.8c-2.9-1.2-5.4-2.9-7.5-5.2c-2.1-2.2-3.7-5-4.9-8.1c-1.2-3.2-1.7-6.7-1.7-10.7c0-3.9,0.6-7.5,1.7-10.7
			c1.2-3.2,2.8-5.9,4.9-8.1c2.1-2.2,4.6-4,7.5-5.2s6.1-1.8,9.6-1.8s6.7,0.6,9.6,1.8c2.9,1.2,5.4,2.9,7.5,5.2c2.1,2.2,3.7,5,4.9,8.1
			C-140.9,535.6-140.3,539.1-140.3,543.1z M-142.4,543.1c0-3.8-0.5-7.1-1.6-10.1c-1-3-2.5-5.5-4.4-7.6c-1.9-2.1-4.2-3.7-6.8-4.8
			c-2.6-1.1-5.6-1.7-8.8-1.7s-6.1,0.6-8.7,1.7c-2.6,1.1-4.9,2.7-6.8,4.8c-1.9,2.1-3.4,4.6-4.5,7.6s-1.6,6.4-1.6,10.1
			c0,3.8,0.5,7.1,1.6,10.1s2.6,5.5,4.5,7.6c1.9,2.1,4.2,3.6,6.8,4.7c2.6,1.1,5.6,1.7,8.7,1.7c3.2,0,6.1-0.6,8.8-1.7
			c2.6-1.1,4.9-2.7,6.8-4.7c1.9-2.1,3.4-4.6,4.4-7.6C-142.9,550.2-142.4,546.9-142.4,543.1z"/>
		<path class="st2" d="M-109.6,567.2c2.6,0,4.9-0.5,7-1.4c2-0.9,3.8-2.2,5.2-3.8c1.4-1.6,2.5-3.5,3.3-5.7c0.8-2.2,1.1-4.5,1.1-7
			v-31.6h2v31.6c0,2.7-0.4,5.3-1.3,7.7s-2.1,4.5-3.7,6.2c-1.6,1.8-3.6,3.2-5.9,4.2c-2.3,1-4.9,1.5-7.8,1.5c-2.9,0-5.5-0.5-7.8-1.5
			s-4.3-2.4-5.9-4.2c-1.6-1.8-2.8-3.9-3.7-6.2c-0.9-2.4-1.3-4.9-1.3-7.7v-31.6h2v31.5c0,2.5,0.4,4.8,1.1,7c0.8,2.2,1.8,4.1,3.3,5.7
			c1.4,1.6,3.2,2.9,5.2,3.8C-114.6,566.8-112.3,567.2-109.6,567.2z"/>
		<path class="st2" d="M-73.6,544.6v23.8h-2v-50.6h12.2c5.5,0,9.7,1.1,12.5,3.2c2.9,2.1,4.3,5.4,4.3,9.7c0,2-0.4,3.8-1.1,5.4
			c-0.7,1.6-1.8,3-3.1,4.2c-1.3,1.2-3,2.1-4.9,2.8s-4,1.1-6.4,1.3c0.4,0.2,0.8,0.6,1.3,1.1l18.8,22.8h-1.6c-0.3,0-0.5,0-0.7-0.1
			c-0.2-0.1-0.4-0.2-0.6-0.5l-17.8-21.8c-0.2-0.3-0.4-0.5-0.6-0.6c-0.2-0.2-0.4-0.3-0.7-0.4c-0.3-0.1-0.6-0.2-0.9-0.2
			s-0.8-0.1-1.3-0.1L-73.6,544.6L-73.6,544.6z M-73.6,543.1h9.6c2.4,0,4.5-0.3,6.4-0.8c1.9-0.6,3.5-1.4,4.9-2.4
			c1.3-1.1,2.3-2.4,3.1-3.9c0.7-1.5,1.1-3.2,1.1-5.1c0-3.9-1.3-6.8-3.8-8.6c-2.5-1.8-6.2-2.8-11-2.8h-10.2v23.6H-73.6z"/>
		<path class="st2" d="M17.4,517.8v1.7H-1.1v48.8h-2v-48.8h-18.6v-1.7H17.4z"/>
		<path class="st2" d="M56.4,517.8v1.7H28.5v22.4H52v1.7H28.5v23.1h27.9l-0.1,1.7H26.5v-50.6H56.4z"/>
		<path class="st2" d="M80.8,542.5L63,517.8h1.9c0.2,0,0.4,0.1,0.5,0.2c0.1,0.1,0.2,0.3,0.3,0.4l16.5,23.1c0-0.2,0.2-0.5,0.4-0.8
			l16.1-22.3c0.1-0.1,0.2-0.3,0.3-0.4c0.1-0.1,0.3-0.2,0.5-0.2h1.9l-17.8,24.5l18.7,26h-1.9c-0.2,0-0.4-0.1-0.5-0.2
			c-0.1-0.2-0.2-0.3-0.4-0.4l-17.2-24.3c0,0.1-0.1,0.2-0.1,0.3s-0.1,0.2-0.2,0.3l-17,23.6c-0.1,0.1-0.3,0.3-0.4,0.4
			c-0.1,0.1-0.3,0.2-0.5,0.2h-1.8L80.8,542.5z"/>
		<path class="st2" d="M144.3,517.8v1.7h-18.5v48.8h-2v-48.8h-18.6v-1.7H144.3z"/>
	</g>
	<g>
		<g>
			<path class="st2" d="M-17.6,496.9H-32v-26.2h-25.2v26.2h-14.4V435h14.4v25.9H-32V435h14.5v61.9H-17.6z"/>
			<path class="st2" d="M34.3,435v11.1H8.9v14.4h19.5v10.6H8.9v14.7h25.4v11.1H-5.6V435L34.3,435L34.3,435z"/>
			<path class="st2" d="M57.5,474v22.9H43.1V435h20.1c4.5,0,8.3,0.5,11.5,1.4s5.7,2.2,7.7,3.8s3.4,3.6,4.4,5.8
				c0.9,2.2,1.4,4.7,1.4,7.3c0,2-0.3,3.9-0.8,5.7c-0.5,1.8-1.3,3.4-2.4,5c-1.1,1.5-2.4,2.9-3.9,4.1c-1.5,1.2-3.3,2.2-5.3,2.9
				c1,0.5,1.9,1.1,2.7,1.8c0.8,0.7,1.6,1.6,2.2,2.6l13.2,21.5h-13c-2.4,0-4.1-0.9-5.2-2.7l-10.3-18c-0.5-0.8-1-1.3-1.6-1.7
				s-1.4-0.5-2.5-0.5H57.5z M57.5,464.1h5.8c2,0,3.6-0.2,5-0.7s2.5-1.2,3.4-2.1c0.9-0.9,1.5-1.9,1.9-3.1c0.4-1.2,0.6-2.4,0.6-3.8
				c0-2.7-0.9-4.8-2.7-6.4c-1.8-1.5-4.5-2.3-8.2-2.3h-5.8L57.5,464.1L57.5,464.1z"/>
			<path class="st2" d="M138.9,435v11.1h-25.4v14.4H133v10.6h-19.5v14.7h25.4v11.1H99V435L138.9,435L138.9,435z"/>
		</g>
	</g>
	<polygon class="st3" points="-131.8,497.4 -213.4,497.4 -100.9,313 -19.8,314.3 	"/>
	<polygon class="st2" points="-250.9,380.5 -314.1,480.4 -314.1,272.7 -250.9,272.7 	"/>
</g>
</svg>
