<?xml version="1.0" encoding="utf-8"?>
<!-- Generator: Adobe Illustrator 19.0.0, SVG Export Plug-In . SVG Version: 6.00 Build 0)  -->
<svg version="1.1" id="Objects" xmlns="http://www.w3.org/2000/svg" xmlns:xlink="http://www.w3.org/1999/xlink" x="0px" y="0px"
	 viewBox="0 0 270.6 266.2" style="enable-background:new 0 0 270.6 266.2;" xml:space="preserve">
<style type="text/css">
	.st0{fill:#00A79D;}
	.st1{fill:#BCBEC0;}
	.st2{fill:url(#SVGID_1_);}
</style>
<g>
	<path class="st0" d="M23.8,226.3v6.9H0v-35.7h8v28.8H23.8z"/>
	<path class="st0" d="M61.9,215.3c0,3.1-0.5,5.7-1.4,8.1c-0.9,2.3-2.2,4.3-3.7,5.8c-1.6,1.6-3.5,2.7-5.6,3.5c-2.2,0.8-4.5,1.2-7,1.2
		c-2.4,0-4.7-0.4-6.9-1.2c-2.2-0.8-4-2-5.7-3.5c-1.6-1.6-2.9-3.5-3.8-5.8c-0.9-2.3-1.4-5-1.4-8.1c0-3.1,0.5-5.7,1.4-8.1
		c1-2.3,2.3-4.3,3.9-5.8c1.6-1.6,3.5-2.8,5.7-3.6c2.1-0.8,4.4-1.2,6.8-1.2c2.4,0,4.7,0.4,6.9,1.2c2.2,0.8,4,2,5.7,3.6
		c1.6,1.6,2.9,3.5,3.8,5.8C61.5,209.6,61.9,212.2,61.9,215.3z M34.7,215.3c0,1.8,0.2,3.3,0.6,4.7c0.4,1.4,1,2.6,1.9,3.6
		c0.8,1,1.8,1.8,3,2.3c1.2,0.5,2.5,0.8,4,0.8c1.5,0,2.8-0.3,4-0.8c1.2-0.5,2.2-1.3,3-2.3c0.8-1,1.4-2.2,1.9-3.6
		c0.4-1.4,0.6-3,0.6-4.7s-0.2-3.3-0.6-4.8c-0.4-1.4-1-2.6-1.9-3.7c-0.8-1-1.8-1.8-3-2.3c-1.2-0.5-2.5-0.8-4-0.8
		c-1.5,0-2.8,0.3-4,0.9c-1.2,0.6-2.2,1.4-3,2.4c-0.8,1-1.4,2.2-1.9,3.7C34.9,212,34.7,213.6,34.7,215.3z"/>
	<path class="st0" d="M86,203.7c-3.7,0-6.4,1-8.1,3.1c-1.7,2.1-2.5,4.9-2.5,8.5c0,1.8,0.2,3.3,0.6,4.8c0.4,1.4,1,2.7,1.9,3.7
		c0.8,1,1.9,1.8,3.1,2.4c1.2,0.6,2.7,0.8,4.3,0.8c0.9,0,1.7,0,2.3-0.1c0.6,0,1.2-0.1,1.7-0.2v-12.4h8V232c-1,0.4-2.5,0.8-4.6,1.2
		c-2.1,0.4-4.8,0.6-7.9,0.6c-2.7,0-5.1-0.4-7.3-1.2c-2.2-0.8-4-2-5.6-3.6c-1.5-1.6-2.7-3.5-3.6-5.8c-0.8-2.3-1.3-4.9-1.3-7.9
		c0-3,0.5-5.6,1.4-7.9c0.9-2.3,2.2-4.2,3.8-5.8c1.6-1.6,3.5-2.8,5.7-3.6c2.2-0.8,4.5-1.2,7-1.2c1.7,0,3.2,0.1,4.6,0.3
		c1.4,0.2,2.5,0.5,3.5,0.8c1,0.3,1.8,0.6,2.4,0.9c0.6,0.3,1.1,0.5,1.4,0.7l-2.3,6.4c-1.1-0.6-2.4-1.1-3.8-1.5
		C89.2,203.9,87.7,203.7,86,203.7z"/>
	<path class="st0" d="M138.7,215.3c0,3.1-0.5,5.7-1.4,8.1c-0.9,2.3-2.2,4.3-3.7,5.8c-1.6,1.6-3.5,2.7-5.6,3.5
		c-2.2,0.8-4.5,1.2-7,1.2c-2.4,0-4.7-0.4-6.9-1.2c-2.2-0.8-4.1-2-5.7-3.5c-1.6-1.6-2.9-3.5-3.8-5.8c-0.9-2.3-1.4-5-1.4-8.1
		c0-3.1,0.5-5.7,1.4-8.1c1-2.3,2.3-4.3,3.9-5.8c1.6-1.6,3.5-2.8,5.7-3.6c2.1-0.8,4.4-1.2,6.8-1.2c2.4,0,4.7,0.4,6.9,1.2
		c2.2,0.8,4,2,5.7,3.6c1.6,1.6,2.9,3.5,3.8,5.8C138.2,209.6,138.7,212.2,138.7,215.3z M111.5,215.3c0,1.8,0.2,3.3,0.6,4.7
		c0.4,1.4,1,2.6,1.9,3.6c0.8,1,1.8,1.8,3,2.3c1.2,0.5,2.5,0.8,4,0.8c1.5,0,2.8-0.3,4-0.8c1.2-0.5,2.2-1.3,3-2.3
		c0.8-1,1.4-2.2,1.9-3.6c0.4-1.4,0.6-3,0.6-4.7s-0.2-3.3-0.6-4.8c-0.4-1.4-1-2.6-1.9-3.7c-0.8-1-1.8-1.8-3-2.3
		c-1.2-0.5-2.5-0.8-4-0.8c-1.5,0-2.8,0.3-4,0.9c-1.2,0.6-2.2,1.4-3,2.4c-0.8,1-1.4,2.2-1.9,3.7C111.7,212,111.5,213.6,111.5,215.3z"
		/>
	<path class="st0" d="M170.7,197.5v6.8h-10.8v28.8h-8v-28.8h-10.8v-6.8H170.7z"/>
	<path class="st0" d="M175.8,233.2v-35.7h24.1v6.7h-16.1v7h14.3v6.6h-14.3v8.6h17.2v6.7H175.8z"/>
	<path class="st0" d="M228.5,233.2c-1-2-2.1-4-3.3-6c-1.2-2-2.6-3.8-4.1-5.2c-0.5,0.5-1.1,1.3-1.8,2.2c-0.7,0.9-1.5,1.9-2.2,3
		c-0.7,1.1-1.4,2.2-2.1,3.3c-0.6,1.1-1.1,2-1.4,2.7h-9.2c1.5-2.8,3.3-5.7,5.3-8.6c2-3,4.3-6.1,6.8-9.4L205,197.5h9.7l6.8,10.3
		l6.9-10.3h9.2L226,214.7c3,3.8,5.5,7.3,7.5,10.5c2,3.2,3.5,5.8,4.6,8H228.5z"/>
	<path class="st0" d="M270.6,197.5v6.8h-10.8v28.8h-8v-28.8H241v-6.8H270.6z"/>
</g>
<g>
	<path class="st1" d="M24,263.6c1.2,0,2.2-0.2,2.7-0.6c0.6-0.4,0.9-1,0.9-1.8c0-0.5-0.1-0.9-0.3-1.2c-0.2-0.3-0.5-0.6-0.8-0.9
		c-0.4-0.3-0.8-0.5-1.3-0.7c-0.5-0.2-1.1-0.5-1.8-0.7c-0.7-0.2-1.3-0.5-1.9-0.8c-0.6-0.3-1.2-0.6-1.6-1.1c-0.5-0.4-0.8-0.9-1.1-1.5
		c-0.3-0.6-0.4-1.3-0.4-2.1c0-1.7,0.6-3.1,1.8-4.1c1.2-1,2.8-1.5,4.9-1.5c1.2,0,2.3,0.1,3.2,0.4c0.9,0.3,1.7,0.6,2.2,0.9l-1.1,2.8
		c-0.6-0.3-1.3-0.6-2-0.8c-0.7-0.2-1.5-0.3-2.3-0.3c-0.9,0-1.7,0.2-2.2,0.6c-0.5,0.4-0.8,0.9-0.8,1.6c0,0.4,0.1,0.8,0.3,1.1
		c0.2,0.3,0.4,0.6,0.7,0.8c0.3,0.2,0.7,0.5,1.1,0.7c0.4,0.2,0.9,0.4,1.4,0.6c0.9,0.3,1.7,0.7,2.4,1c0.7,0.3,1.3,0.7,1.8,1.2
		c0.5,0.5,0.9,1,1.1,1.6c0.3,0.6,0.4,1.4,0.4,2.3c0,1.7-0.6,3.1-1.8,4c-1.2,0.9-3,1.4-5.4,1.4c-0.8,0-1.5,0-2.2-0.2
		c-0.7-0.1-1.2-0.2-1.7-0.4c-0.5-0.1-0.9-0.3-1.3-0.5c-0.4-0.2-0.7-0.3-0.9-0.4l1-2.8c0.5,0.3,1.2,0.6,2,0.8
		C21.8,263.5,22.8,263.6,24,263.6z"/>
	<path class="st1" d="M52.7,263.2v3H40.7v-19.1h3.5v16.1H52.7z"/>
	<path class="st1" d="M79.5,256.6c0,1.6-0.2,3.1-0.7,4.3c-0.5,1.2-1.1,2.3-2,3.1c-0.8,0.8-1.8,1.5-2.9,1.9c-1.1,0.4-2.3,0.6-3.6,0.6
		c-1.3,0-2.5-0.2-3.6-0.6c-1.1-0.4-2.1-1-2.9-1.9c-0.8-0.8-1.5-1.9-2-3.1c-0.5-1.2-0.7-2.7-0.7-4.3c0-1.6,0.2-3.1,0.7-4.3
		c0.5-1.2,1.2-2.3,2-3.1c0.9-0.8,1.8-1.5,3-1.9c1.1-0.4,2.3-0.6,3.6-0.6c1.2,0,2.4,0.2,3.5,0.6c1.1,0.4,2.1,1.1,2.9,1.9
		c0.8,0.8,1.5,1.9,2,3.1C79.3,253.6,79.5,255,79.5,256.6z M64.6,256.6c0,1,0.1,2,0.4,2.8c0.3,0.9,0.6,1.6,1.1,2.2
		c0.5,0.6,1.1,1.1,1.8,1.4c0.7,0.3,1.5,0.5,2.4,0.5c0.9,0,1.6-0.2,2.3-0.5c0.7-0.3,1.3-0.8,1.8-1.4c0.5-0.6,0.9-1.3,1.1-2.2
		c0.3-0.9,0.4-1.8,0.4-2.8c0-1-0.1-2-0.4-2.8c-0.3-0.9-0.6-1.6-1.1-2.2c-0.5-0.6-1.1-1.1-1.8-1.4c-0.7-0.3-1.5-0.5-2.3-0.5
		c-0.9,0-1.7,0.2-2.4,0.5c-0.7,0.3-1.3,0.8-1.8,1.4c-0.5,0.6-0.9,1.3-1.1,2.2C64.8,254.7,64.6,255.6,64.6,256.6z"/>
	<path class="st1" d="M98.6,249.7c-2,0-3.5,0.6-4.5,1.8c-1,1.2-1.6,2.9-1.6,5.1c0,1,0.1,2,0.4,2.8c0.2,0.9,0.6,1.6,1.1,2.2
		c0.5,0.6,1.1,1.1,1.8,1.4c0.7,0.3,1.6,0.5,2.5,0.5c0.6,0,1.1,0,1.6-0.1c0.4,0,0.8-0.1,1-0.2v-6.9h3.5v9.2c-0.5,0.2-1.3,0.4-2.4,0.6
		c-1.1,0.2-2.4,0.3-3.9,0.3c-1.4,0-2.6-0.2-3.8-0.7c-1.1-0.4-2.1-1.1-2.9-1.9c-0.8-0.8-1.4-1.9-1.9-3.1c-0.4-1.2-0.7-2.6-0.7-4.2
		c0-1.6,0.2-3,0.7-4.2c0.5-1.2,1.2-2.3,2-3.1c0.8-0.9,1.8-1.5,3-1.9c1.1-0.4,2.3-0.7,3.6-0.7c0.9,0,1.7,0.1,2.4,0.2
		c0.7,0.1,1.3,0.3,1.8,0.4c0.5,0.1,0.9,0.3,1.2,0.5c0.3,0.2,0.5,0.3,0.7,0.4l-1,2.8c-0.6-0.3-1.2-0.6-2.1-0.8
		C100.4,249.9,99.5,249.7,98.6,249.7z"/>
	<path class="st1" d="M127.6,266.2c-0.3-0.8-0.5-1.5-0.8-2.2c-0.3-0.7-0.5-1.5-0.8-2.3H118c-0.3,0.8-0.5,1.5-0.8,2.3
		c-0.3,0.7-0.5,1.5-0.8,2.2h-3.6c0.7-2,1.4-3.9,2-5.6c0.6-1.7,1.3-3.4,1.9-4.9c0.6-1.5,1.2-3,1.8-4.4c0.6-1.4,1.2-2.8,1.9-4.1h3.3
		c0.6,1.4,1.3,2.7,1.9,4.1c0.6,1.4,1.2,2.9,1.8,4.4c0.6,1.5,1.2,3.2,1.9,4.9c0.7,1.7,1.3,3.6,2,5.6H127.6z M122,250.8
		c-0.4,1-0.9,2.2-1.4,3.6c-0.5,1.4-1.1,2.9-1.7,4.5h6.3c-0.6-1.6-1.2-3.2-1.7-4.6C122.9,252.9,122.4,251.7,122,250.8z"/>
	<path class="st1" d="M153,266.2c-0.6-1-1.3-2.2-2.1-3.4c-0.8-1.2-1.6-2.4-2.4-3.6c-0.8-1.2-1.7-2.4-2.5-3.5
		c-0.9-1.1-1.7-2.2-2.4-3.1v13.6h-3.4v-19.1h2.8c0.7,0.8,1.5,1.7,2.4,2.7c0.8,1.1,1.7,2.2,2.5,3.3c0.9,1.1,1.7,2.3,2.5,3.4
		c0.8,1.1,1.5,2.2,2.1,3.2v-12.7h3.4v19.1H153z"/>
	<path class="st1" d="M178.7,247.1h3.5v19.1h-3.5v-8.5h-8.3v8.5h-3.5v-19.1h3.5v7.6h8.3V247.1z"/>
	<path class="st1" d="M193.1,266.2v-19.1h12.2v2.9h-8.8v4.7h7.8v2.9h-7.8v5.6h9.4v2.9H193.1z"/>
	<path class="st1" d="M220.9,246.9c2.8,0,4.9,0.5,6.3,1.5c1.5,1,2.2,2.5,2.2,4.6c0,2.6-1.3,4.3-3.8,5.3c0.3,0.4,0.7,0.9,1.2,1.5
		c0.4,0.6,0.9,1.3,1.3,2c0.5,0.7,0.9,1.4,1.3,2.2c0.4,0.7,0.8,1.5,1.1,2.2h-3.9c-0.3-0.7-0.7-1.3-1.1-2c-0.4-0.7-0.8-1.3-1.2-2
		c-0.4-0.6-0.8-1.2-1.2-1.8c-0.4-0.6-0.8-1.1-1.1-1.5c-0.3,0-0.5,0-0.7,0c-0.2,0-0.4,0-0.5,0h-1.7v7.2h-3.5v-18.8
		c0.8-0.2,1.7-0.3,2.7-0.4C219.3,247,220.2,246.9,220.9,246.9z M221.2,249.9c-0.7,0-1.4,0-2,0.1v6.2h1.5c0.8,0,1.6,0,2.2-0.1
		c0.6-0.1,1.2-0.3,1.6-0.5c0.4-0.2,0.8-0.6,1-1c0.2-0.4,0.3-0.9,0.3-1.5c0-0.6-0.1-1.1-0.3-1.5c-0.2-0.4-0.5-0.7-1-1
		c-0.4-0.2-0.9-0.4-1.5-0.5C222.5,250,221.9,249.9,221.2,249.9z"/>
	<path class="st1" d="M239.7,266.2v-19.1H252v2.9h-8.8v4.7h7.8v2.9h-7.8v5.6h9.4v2.9H239.7z"/>
</g>
<linearGradient id="SVGID_1_" gradientUnits="userSpaceOnUse" x1="267.4941" y1="84.938" x2="6.1539" y2="84.938">
	<stop  offset="0" style="stop-color:#00A79D"/>
	<stop  offset="1" style="stop-color:#262262"/>
</linearGradient>
<path class="st2" d="M181.3,0l-23,23l-23-23L125,10.3l74,74.7l-40.7,40.7l-12.4-12.4l28.3-28.3L89.3,0L4.3,84.9l84.9,84.9l23-23
	l23,23l10.5-10.5L71.6,84.9l40.7-40.7l12.4,12.4L96.3,84.9l84.9,84.9l84.9-84.9L181.3,0z M50.3,84.9l51.3,51.3l-12.4,12.4L25.6,84.9
	l63.7-63.7l12.4,12.4L50.3,84.9z M117.6,84.9l17.7-17.7L153,84.9l-17.7,17.7L117.6,84.9z M168.9,136.3l51.3-51.3l-51.3-51.3
	l12.4-12.4L245,84.9l-63.7,63.7L168.9,136.3z"/>
</svg>
