<?xml version="1.0" standalone="no"?>
<!DOCTYPE svg PUBLIC "-//W3C//DTD SVG 1.1//EN" "http://www.w3.org/Graphics/SVG/1.1/DTD/svg11.dtd" >
<svg xmlns="http://www.w3.org/2000/svg">
<metadata>Generated by IcoMoon</metadata>
<defs>
<font id="icomoon" horiz-adv-x="1024">
<font-face units-per-em="1024" ascent="960" descent="-64" />
<missing-glyph horiz-adv-x="1024" />
<glyph unicode="&#x20;" horiz-adv-x="512" d="" />
<glyph unicode="&#xe900;" glyph-name="icon4" d="M767.166 506.371l-246.827-303.531c0 0 0 0 0 0-3.336-3.336-10.007-3.336-10.007 0l-246.827 303.531c-3.336 3.336-3.336 6.671 0 10.007l80.052 110.072c0 3.336 3.336 3.336 6.671 3.336h336.886c3.336 0 3.336 0 6.671-3.336l80.052-113.407zM513.668 222.853l236.821 293.524-73.381 103.401h-326.879l-73.381-103.401 236.821-293.524zM570.371 519.713c3.336 0 6.671-3.336 6.671-6.671s-3.336-6.671-6.671-6.671h-306.866c-3.336 0-6.671 3.336-6.671 6.671s3.336 6.671 6.671 6.671h306.866zM760.495 519.713c3.336 0 6.671-3.336 6.671-6.671s-3.336-6.671-6.671-6.671h-30.020c-3.336 0-6.671 3.336-6.671 6.671s3.336 6.671 6.671 6.671h30.020zM336.886 623.114c0 3.336 0 10.007 3.336 10.007s10.007 0 10.007-3.336l166.775-416.938c0-3.336 0-10.007-3.336-10.007s-10.007 0-10.007 3.336l-166.775 416.938zM600.391 442.997c0 3.336 6.671 6.671 10.007 3.336 3.336 0 6.671-6.671 3.336-10.007l-93.394-233.485c0-3.336-6.671-6.671-10.007-3.336-3.336 0-6.671 6.671-3.336 10.007l93.394 233.485zM673.772 626.45c0 3.336 6.671 6.671 10.007 3.336 3.336 0 6.671-6.671 3.336-10.007l-13.342-33.355c0-3.336-6.671-6.671-10.007-3.336-3.336 0-6.671 6.671-3.336 10.007l13.342 33.355zM396.925 506.371c-3.336-3.336-6.671-3.336-10.007 0s-3.336 6.671 0 10.007l120.078 113.407c3.336 3.336 6.671 3.336 10.007 0s3.336-6.671 0-10.007l-120.078-113.407zM597.055 556.404c3.336-3.336 3.336-6.671 0-10.007s-6.671-3.336-10.007 0l-80.052 73.381c-3.336 3.336-3.336 6.671 0 10.007s6.671 3.336 10.007 0l80.052-73.381zM657.094 526.384l-10.007 16.678-6.671-16.678c0 0-3.336-3.336-3.336-3.336l-16.678-10.007 16.678-10.007c0 0 3.336-3.336 3.336-3.336l10.007-16.678 10.007 16.678c0 0 3.336 3.336 3.336 3.336l16.678 10.007-16.678 10.007c-3.336 0-3.336 0-6.671 3.336zM657.094 563.075l13.342-30.020 30.020-13.342c3.336-3.336 6.671-6.671 3.336-10.007 0 0-3.336-3.336-3.336-3.336l-30.020-13.342-13.342-33.355c-3.336-3.336-6.671-6.671-10.007-3.336 0 0-3.336 3.336-3.336 3.336l-13.342 30.020-30.020 13.342c-3.336 3.336-6.671 6.671-3.336 10.007 0 0 3.336 3.336 3.336 3.336l30.020 13.342 13.342 30.020c3.336 3.336 6.671 6.671 10.007 3.336 0 3.336 3.336 3.336 3.336 0z" />
<glyph unicode="&#xe901;" glyph-name="icon1" d="M120.078 366.28c10.007 0 16.678-6.671 16.678-16.678s-6.671-16.678-16.678-16.678h-103.401c-10.007 0-16.678 6.671-16.678 16.678v0 196.795c0 10.007 6.671 16.678 16.678 16.678v0h176.782c10.007 0 16.678-6.671 16.678-16.678v0-176.782c0-10.007-6.671-16.678-16.678-16.678s-16.678 6.671-16.678 16.678v163.44h-143.427v-166.775h86.723zM103.401 346.267c-3.336 10.007 3.336 16.678 10.007 20.013 10.007 3.336 20.013-3.336 20.013-10.007l60.039-220.143h53.368v190.124c0 10.007 6.671 16.678 16.678 16.678s16.678-6.671 16.678-16.678v-206.801c0-10.007-6.671-16.678-16.678-16.678h-83.388c-6.671 0-13.342 3.336-16.678 13.342l-60.039 230.15zM120.078 436.326c10.007 0 16.678-6.671 16.678-16.678s-6.671-16.678-16.678-16.678h-43.362c-10.007 0-16.678 6.671-16.678 16.678s6.671 16.678 16.678 16.678h43.362zM713.798 206.176c0-10.007-6.671-16.678-16.678-16.678s-16.678 6.671-16.678 16.678v573.707c0 10.007 6.671 16.678 16.678 16.678s16.678-6.671 16.678-16.678v-573.707zM270.176 559.739c-6.671-3.336-16.678 0-20.013 6.671s0 16.678 6.671 20.013l537.016 260.169c6.671 3.336 16.678 0 20.013-6.671s0-16.678-6.671-20.013l-537.016-260.169zM256.834 312.912c-6.671 3.336-10.007 13.342-6.671 20.013s13.342 10.007 20.013 6.671l537.016-260.169c6.671-3.336 10.007-13.342 6.671-20.013s-13.342-10.007-20.013-6.671l-537.016 260.169zM256.834 396.3c-6.671 3.336-10.007 13.342-6.671 20.013s13.342 10.007 20.013 6.671l537.016-260.169c6.671-3.336 10.007-13.342 6.671-20.013s-13.342-10.007-20.013-6.671l-537.016 260.169zM787.179 833.251c0 10.007 6.671 16.678 16.678 16.678s16.678-6.671 16.678-16.678v-683.779c0-10.007-6.671-16.678-16.678-16.678s-16.678 6.671-16.678 16.678v683.779zM930.606 382.958c-3.336-6.671-13.342-13.342-20.013-10.007s-13.342 13.342-10.007 20.013c3.336 10.007 6.671 16.678 6.671 26.684 3.336 10.007 3.336 20.013 3.336 30.020 0 20.013-3.336 36.691-10.007 56.704-3.336 6.671 0 16.678 10.007 20.013s16.678 0 20.013-10.007c10.007-20.013 13.342-43.362 13.342-66.71 0-10.007 0-23.349-3.336-33.355s-6.671-23.349-10.007-33.355zM990.645 319.583c-3.336-6.671-13.342-10.007-23.349-6.671-6.671 3.336-10.007 13.342-6.671 23.349 3.336 3.336 6.671 10.007 6.671 13.342 3.336 3.336 3.336 10.007 6.671 13.342 3.336 6.671 6.671 13.342 6.671 20.013v0c3.336 6.671 3.336 13.342 6.671 20.013 0 6.671 3.336 13.342 3.336 23.349 0 6.671 0 13.342 0 23.349 0 13.342 0 30.020-3.336 43.362 0 6.671-3.336 13.342-6.671 20.013v0c-3.336 6.671-3.336 13.342-6.671 20.013v0c-3.336 3.336-3.336 10.007-6.671 13.342v0c-3.336 3.336-3.336 10.007-6.671 13.342-3.336 6.671-3.336 16.678 6.671 23.349 6.671 3.336 16.678 3.336 23.349-6.671 3.336-3.336 6.671-10.007 6.671-13.342v0c3.336-3.336 3.336-10.007 6.671-16.678v0c3.336-6.671 6.671-16.678 6.671-23.349v0 0c3.336-6.671 3.336-16.678 6.671-23.349 3.336-16.678 3.336-33.355 3.336-50.033 0-6.671 0-16.678 0-26.684s-3.336-16.678-3.336-23.349c0-6.671-3.336-16.678-6.671-23.349v0c-3.336-6.671-6.671-16.678-6.671-23.349-3.336-6.671-3.336-10.007-6.671-16.678 0-6.671-3.336-10.007-6.671-16.678z" />
<glyph unicode="&#xe902;" glyph-name="icon2" d="M760.495 579.752c-6.671-3.336-16.678-3.336-23.349 6.671-3.336 6.671-3.336 16.678 6.671 23.349l256.834 156.769c6.671 3.336 16.678 3.336 23.349-6.671 0-3.336 3.336-6.671 3.336-10.007v0-607.062c0-6.671-3.336-10.007-6.671-13.342l-286.853-190.124c-3.336-3.336-10.007-3.336-16.678 0v0l-410.267 190.124-280.182-186.788c-6.671-3.336-16.678-3.336-23.349 3.336-3.336 3.336-3.336 6.671-3.336 10.007v600.391c0 6.671 3.336 10.007 6.671 13.342v0l223.479 133.42c6.671 3.336 16.678 3.336 23.349-6.671 3.336-6.671 3.336-16.678-6.671-23.349l-216.808-126.749v-563.7l266.84 176.782c3.336 3.336 10.007 3.336 16.678 0l406.932-186.788 273.511 180.117v570.371l-233.485-143.427zM650.423 873.277c-33.355 33.355-83.388 56.704-136.756 56.704s-100.065-20.013-136.756-56.704c-33.355-33.355-56.704-83.388-56.704-136.756 0-56.704 33.355-123.414 73.381-190.124 36.691-60.039 83.388-116.743 116.743-160.104 33.355 43.362 80.052 100.065 116.743 160.104 40.026 66.71 73.381 133.42 73.381 190.124 6.671 53.368-16.678 100.065-50.033 136.756v0zM513.668 960c60.039 0 116.743-26.684 156.769-66.71v0 0c40.026-40.026 66.71-96.73 66.71-156.769 0-63.375-33.355-136.756-80.052-206.801-43.362-70.046-96.73-133.42-133.42-176.782-6.671-6.671-16.678-6.671-23.349-3.336 0 0-3.336 3.336-3.336 3.336-36.691 43.362-86.723 110.072-130.085 176.782-43.362 70.046-80.052 143.427-80.052 206.801 0 60.039 26.684 116.743 66.71 156.769 43.362 40.026 100.065 66.71 160.104 66.71zM560.365 783.218v0c-10.007 10.007-26.684 20.013-46.697 20.013-16.678 0-33.355-6.671-46.697-20.013v0c-10.007-10.007-20.013-26.684-20.013-46.697 0-16.678 6.671-33.355 20.013-46.697 10.007-10.007 26.684-20.013 46.697-20.013 16.678 0 33.355 6.671 46.697 20.013v0c10.007 10.007 20.013 26.684 20.013 46.697-3.336 16.678-10.007 33.355-20.013 46.697zM513.668 833.251c26.684 0 50.033-10.007 66.71-26.684v0c16.678-16.678 26.684-40.026 26.684-66.71s-10.007-50.033-26.684-66.71v0c-16.678-16.678-40.026-26.684-66.71-26.684s-50.033 10.007-66.71 26.684c-16.678 16.678-26.684 40.026-26.684 66.71s10.007 50.033 26.684 66.71v0c16.678 16.678 40.026 26.684 66.71 26.684zM737.147-43.987c0-10.007-6.671-16.678-16.678-16.678s-16.678 6.671-16.678 16.678v573.707c0 10.007 6.671 16.678 16.678 16.678s16.678-6.671 16.678-16.678v-573.707zM323.544 152.808c0-10.007-6.671-16.678-16.678-16.678s-16.678 6.671-16.678 16.678v376.912c0 10.007 6.671 16.678 16.678 16.678s16.678-6.671 16.678-16.678v-376.912z" />
<glyph unicode="&#xe903;" glyph-name="icon3" d="M747.153 439.661c-6.671-6.671-16.678-3.336-20.013 0zM30.020 933.316c6.671 6.671 16.678 3.336 20.013 0zM113.407 376.287l76.717 60.039c3.336 3.336 6.671 3.336 10.007 3.336h476.977c16.678 0 33.355 6.671 46.697 20.013v0c13.342 13.342 20.013 30.020 20.013 46.697v353.564c0 16.678-6.671 33.355-20.013 46.697-10.007 13.342-26.684 20.013-46.697 20.013h-577.042c-16.678 0-33.355-6.671-46.697-20.013v0c-13.342-10.007-20.013-26.684-20.013-46.697v-350.228c0-16.678 6.671-33.355 20.013-46.697v0c13.342-13.342 30.020-20.013 46.697-20.013v0c10.007 0 16.678-6.671 16.678-16.678v-50.033zM206.801 409.642l-100.065-80.052c-3.336-3.336-13.342-3.336-20.013 3.336-3.336 3.336-3.336 6.671-3.336 10.007v0 66.71c-20.013 3.336-40.026 13.342-53.368 26.684v0 0c-20.013 20.013-30.020 46.697-30.020 73.381v350.228c0 26.684 10.007 53.368 30.020 70.046v0c16.678 20.013 43.362 30.020 70.046 30.020h580.378c26.684 0 53.368-10.007 70.046-30.020 16.678-16.678 30.020-43.362 30.020-70.046v-350.228c0-26.684-10.007-53.368-30.020-70.046v0c-16.678-16.678-43.362-26.684-70.046-26.684h-473.642zM140.091 803.231c-10.007 0-16.678 6.671-16.678 16.678s6.671 16.678 16.678 16.678h496.99c10.007 0 16.678-6.671 16.678-16.678s-6.671-16.678-16.678-16.678h-496.99zM140.091 706.502c-10.007 0-16.678 6.671-16.678 16.678s6.671 16.678 16.678 16.678h496.99c10.007 0 16.678-6.671 16.678-16.678s-6.671-16.678-16.678-16.678h-496.99zM823.87 409.642c-10.007 0-16.678 6.671-16.678 16.678s6.671 16.678 16.678 16.678h63.375c10.007 0 16.678-6.671 16.678-16.678s-6.671-16.678-16.678-16.678h-63.375zM386.919 312.912c-10.007 0-16.678 6.671-16.678 16.678s6.671 16.678 16.678 16.678h496.99c10.007 0 16.678-6.671 16.678-16.678s-6.671-16.678-16.678-16.678h-496.99zM386.919 212.847c-10.007 0-16.678 6.671-16.678 16.678s6.671 16.678 16.678 16.678h496.99c10.007 0 16.678-6.671 16.678-16.678s-6.671-16.678-16.678-16.678h-496.99zM386.919 116.117c-10.007 0-16.678 6.671-16.678 16.678s6.671 16.678 16.678 16.678h350.228c10.007 0 16.678-6.671 16.678-16.678s-6.671-16.678-16.678-16.678h-350.228zM246.827 342.932c0 10.007 6.671 16.678 16.678 16.678s16.678-6.671 16.678-16.678v-226.814c0-16.678 6.671-33.355 20.013-46.697v0c13.342-10.007 30.020-20.013 46.697-20.013h476.977c3.336 0 10.007-3.336 10.007-3.336l76.717-60.039v50.033c0 10.007 6.671 16.678 16.678 16.678v0c16.678 0 33.355 6.671 46.697 20.013v0c13.342 13.342 20.013 30.020 20.013 46.697v330.215c0 16.678-6.671 33.355-20.013 46.697v0c-13.342 10.007-30.020 20.013-46.697 20.013h-83.388c-10.007 0-16.678 6.671-16.678 16.678s6.671 16.678 16.678 16.678h83.388c26.684 0 50.033-10.007 70.046-26.684v0c16.678-16.678 30.020-43.362 30.020-70.046v-330.215c0-26.684-10.007-53.368-30.020-70.046v0 0c-13.342-13.342-33.355-23.349-53.368-26.684v-66.71c0-3.336 0-6.671-3.336-10.007-6.671-6.671-16.678-6.671-23.349-3.336l-100.065 80.052h-470.306c-26.684 0-50.033 10.007-70.046 26.684v0c-16.678 16.678-30.020 43.362-30.020 70.046v220.143zM140.091 606.436c-10.007 0-16.678 6.671-16.678 16.678s6.671 16.678 16.678 16.678h350.228c10.007 0 16.678-6.671 16.678-16.678s-6.671-16.678-16.678-16.678h-350.228z" />
<glyph unicode="&#xe904;" glyph-name="socialicon-youtube" d="M602.496 456.8c5.472-2.080 8.192-4.864 8.192-8.352 0-3.456-2.72-6.592-8.192-9.376l-117.536-55.2c-4.768-2.784-9.056-2.976-12.768-0.512-3.776 2.432-5.632 6.4-5.632 11.968v105.216c0 6.272 1.856 10.592 5.632 13.024 3.712 2.432 8 2.272 12.768-0.512l117.536-56.256zM518.688 960c69.504 0 134.752-13.376 195.744-40.096 60.992-26.752 114.144-63.232 159.456-109.408 45.312-46.208 81.28-100.352 107.872-162.528 26.56-62.144 39.84-128.672 39.84-199.52 0-70.816-13.28-137.344-39.84-199.488-26.592-62.176-62.56-116.352-107.872-162.528-45.312-46.208-98.464-82.816-159.456-109.92-60.992-27.072-126.24-40.64-195.744-40.64s-134.752 13.568-195.744 40.64c-60.992 27.104-114.144 63.712-159.456 109.92-45.344 46.176-81.28 100.352-107.84 162.528-26.592 62.144-39.872 128.672-39.872 199.488 0 70.848 13.28 137.376 39.872 199.52 26.56 62.176 62.496 116.32 107.84 162.528 45.312 46.176 98.464 82.656 159.456 109.408 60.992 26.72 126.24 40.096 195.744 40.096v0zM518.688 240.096c128.8 0 204.608 11.648 227.456 34.912 22.816 23.264 34.24 81.088 34.24 173.44 0 92.384-11.424 150.048-34.24 172.96-22.848 22.912-98.656 34.368-227.456 34.368s-204.608-11.456-227.424-34.368c-22.848-22.912-34.24-80.576-34.24-172.96 0-92.352 11.392-150.176 34.24-173.44 22.816-23.264 98.624-34.912 227.424-34.912v0z" />
<glyph unicode="&#xe905;" glyph-name="socialicon-instagram" d="M676.608 448.448c0 4.192-0.352 8.512-1.024 13.056-0.672 4.48-1.376 8.832-2.048 13.024h55.2v-212.544c0-7.648-2.56-14.080-7.648-19.264-5.12-5.216-11.424-7.84-18.912-7.84h-365.952c-7.52 0-13.792 2.624-18.912 7.84-5.12 5.184-7.68 11.616-7.68 19.264v212.544h55.2c-0.672-4.192-1.376-8.544-2.048-13.024-0.672-4.544-1.024-8.864-1.024-13.056 0-44.448 15.328-82.272 46.016-113.536 30.656-31.264 67.808-46.88 111.424-46.88 43.584 0 80.736 15.616 111.424 46.88 30.656 31.264 45.984 69.088 45.984 113.536v0zM519.2 341.152c-28.64 0-53.152 10.432-73.6 31.264s-30.688 46.176-30.688 76.032c0 29.184 10.24 54.176 30.688 75.040 20.448 20.832 44.96 31.232 73.6 31.232 28.608 0 53.152-10.4 73.6-31.232 20.416-20.864 30.656-45.856 30.656-75.040 0-29.856-10.24-55.2-30.656-76.032-20.448-20.832-44.992-31.264-73.6-31.264v0zM644.928 559.936c-4.096 0-7.68 1.568-10.752 4.704s-4.928 7.104-5.6 11.968v63.552c0 4.16 1.696 7.808 5.088 10.944 3.424 3.136 7.168 4.672 11.264 4.672h62.336c4.768 0 8.704-1.536 11.776-4.672 3.040-3.136 4.576-6.784 4.576-10.944v-63.552c0-4.864-1.536-8.832-4.576-11.968-3.072-3.136-7.008-4.704-11.776-4.704h-62.336zM519.2 960c69.504 0 134.752-13.376 195.744-40.096 60.992-26.752 114.144-63.232 159.456-109.408 45.312-46.208 81.28-100.352 107.84-162.528 26.592-62.144 39.872-128.672 39.872-199.52 0-70.816-13.28-137.344-39.872-199.488-26.56-62.176-62.528-116.352-107.84-162.528-45.312-46.208-98.464-82.816-159.456-109.92-60.992-27.072-126.24-40.64-195.744-40.64-69.536 0-134.784 13.568-195.776 40.64-60.992 27.104-114.144 63.712-159.456 109.92-45.312 46.176-81.248 100.352-107.84 162.528-26.56 62.144-39.872 128.672-39.872 199.488 0 70.848 13.312 137.376 39.872 199.52 26.592 62.176 62.528 116.32 107.84 162.528 45.312 46.176 98.464 82.656 159.456 109.408 60.992 26.72 126.24 40.096 195.776 40.096v0zM780.864 241.152v414.624c0 16-5.6 29.856-16.864 41.696-11.232 11.808-25.056 17.696-41.408 17.696h-406.816c-16.352 0-30.176-5.888-41.408-17.696-11.232-11.84-16.864-25.696-16.864-41.696v-414.624c0-16.672 5.632-30.752 16.864-42.208s25.056-17.184 41.408-17.184h406.816c16.352 0 30.176 5.728 41.408 17.184 11.264 11.456 16.864 25.536 16.864 42.208v0z" />
<glyph unicode="&#xe906;" glyph-name="socialicon-pinterest" d="M518.72 960c69.504 0 134.592-13.216 195.232-39.584 60.64-26.4 113.792-62.88 159.488-109.408 45.632-46.528 81.76-101.056 108.352-163.552 26.56-62.496 39.872-129.184 39.872-200.032 0-69.472-13.312-135.424-39.872-197.952-26.592-62.496-62.72-117.024-108.352-163.552-45.696-46.56-98.848-83.040-159.488-109.408s-125.728-39.584-195.232-39.584c-69.504 0-134.592 13.216-195.232 39.584-60.672 26.368-113.824 62.848-159.456 109.408-45.696 46.528-81.792 101.056-108.352 163.552-26.592 62.528-39.872 128.48-39.872 197.952 0 70.848 13.28 137.536 39.872 200.032 26.56 62.496 62.656 117.024 108.352 163.552 45.632 46.528 98.784 83.008 159.456 109.408 60.64 26.368 125.728 39.584 195.232 39.584v0zM553.472 326.56c29.984-2.784 56.224 2.784 78.72 16.672s41.216 32.32 56.224 55.232c14.976 22.912 25.184 49.28 30.656 79.168 5.44 29.856 6.144 60.064 2.048 90.656-2.752 26.368-11.232 49.632-25.568 69.792-14.304 20.128-31.68 36.448-52.128 48.96s-43.936 21.152-70.528 26.048c-26.56 4.864-53.504 5.888-80.736 3.136-21.824-2.816-43.296-9.056-64.416-18.752-21.152-9.76-39.872-22.944-56.224-39.616-16.352-16.64-29.984-35.776-40.864-57.28-10.944-21.568-17.088-44.8-18.432-69.792 0-16.672 1.024-31.616 3.072-44.832 2.048-13.184 6.144-25.344 12.288-36.448 6.112-11.136 13.952-20.512 23.488-28.128 9.536-7.648 21.792-12.864 36.8-15.616 6.816 11.104 9.888 20.48 9.216 28.128-0.704 7.616-2.4 14.56-5.12 20.832-2.752 6.24-6.112 12.512-10.208 18.752s-6.848 13.536-8.192 21.888c-5.472 34.688 0 65.632 16.352 92.704 16.352 27.104 37.824 47.584 64.416 61.472 26.56 13.856 55.2 20.128 85.856 18.752 30.656-1.408 57.568-13.888 80.768-37.504 16.352-16.672 25.856-39.936 28.608-69.792 2.72-29.888 0.32-59.072-7.168-87.52-7.488-28.48-20.096-52.096-37.824-70.848s-39.52-25.344-65.408-19.808c-24.544 4.192-36.128 16.32-34.752 36.48 1.344 20.128 5.44 41.984 12.256 65.632 6.816 23.616 12.288 45.856 16.352 66.688 4.096 20.832-4.064 35.424-24.512 43.744-15.008 6.944-28.64 6.24-40.896-2.080s-21.472-19.808-27.584-34.368c-6.144-14.592-9.216-30.592-9.216-47.936 0-17.376 3.392-33.024 10.208-46.88-4.064-22.24-9.184-44.48-15.328-66.688-6.112-22.208-11.584-44.8-16.352-67.712-4.8-22.912-8.16-46.88-10.208-71.872-2.048-25.024-1.728-51.424 1.024-79.2 13.6 9.696 24.512 21.184 32.704 34.4 8.16 13.184 15.328 27.776 21.472 43.744 6.112 15.936 11.552 32.608 16.352 50.016 4.768 17.344 8.48 35.744 11.232 55.2 6.816-4.16 12.576-8.32 17.376-12.48 4.768-4.192 9.888-7.68 15.328-10.432 5.44-2.784 11.264-5.216 17.376-7.296 6.144-2.080 13.312-3.84 21.472-5.216v0z" />
<glyph unicode="&#xe907;" glyph-name="socialicon-G" d="M472.192 593.28c2.72-11.136 3.744-21.888 3.072-32.288-0.704-10.432-2.752-20.16-6.144-29.184-3.392-9.056-7.84-16.672-13.28-22.912-5.472-6.272-11.584-10.112-18.4-11.456-1.376 0-2.4 0-3.072 0-0.704 0-1.376-0.352-2.048-1.056s-1.344-1.024-2.016-1.024c-0.704 0-1.728 0-3.072 0-6.848 0-13.28 1.728-19.424 5.184s-11.936 8-17.376 13.568c-5.472 5.536-10.592 12.48-15.328 20.832-4.8 8.32-7.872 16.672-9.216 24.992-1.376 5.536-2.4 10.752-3.072 15.648-0.704 4.832-1.024 9.696-1.024 14.56s0.32 9.376 1.024 13.568c0.672 4.16 1.696 8.992 3.072 14.56 1.344 4.192 3.072 8 5.12 11.456s4.416 6.592 7.136 9.376c2.72 2.784 5.792 5.216 9.216 7.296 3.392 2.080 6.464 3.136 9.184 3.136 1.344 1.376 2.368 2.080 3.072 2.080 0.672 0 1.344 0 2.048 0 0.672 0 2.368 0 5.12 0 8.16 0 15.648-1.024 22.496-3.136 6.784-2.080 12.576-5.184 17.376-9.376 4.736-4.16 9.504-10.080 14.304-17.696 4.768-7.648 8.48-17.024 11.232-28.128v0 0zM519.232 960c69.504 0 134.56-13.216 195.232-39.584 60.64-26.4 113.792-62.88 159.456-109.408s81.792-101.056 108.352-163.552c26.592-62.496 39.872-129.184 39.872-200.032 0-69.472-13.28-135.424-39.872-197.952-26.56-62.496-62.688-117.024-108.352-163.552-45.664-46.56-98.816-83.040-159.456-109.408-60.672-26.368-125.728-39.584-195.232-39.584-69.536 0-134.624 13.216-195.264 39.584s-113.792 62.848-159.456 109.408c-45.664 46.528-81.76 101.056-108.352 163.552-26.56 62.528-39.872 128.48-39.872 197.952 0 70.848 13.312 137.536 39.872 200.032 26.592 62.496 62.688 117.024 108.352 163.552s98.816 83.008 159.456 109.408c60.64 26.368 125.728 39.584 195.264 39.584v0zM490.592 228.64c9.536 5.536 18.4 11.456 26.592 17.696 8.16 6.272 14.624 13.888 19.424 22.944 4.768 9.024 8.48 18.752 11.232 29.152 2.72 10.432 4.096 21.888 4.096 34.4 0 12.48-1.728 23.584-5.12 33.344-3.424 9.696-7.84 18.4-13.28 26.016-5.472 7.648-11.584 14.592-18.4 20.864-6.848 6.24-12.96 11.456-18.4 15.616-2.752 4.16-5.824 7.616-9.216 10.4s-6.464 5.536-9.184 8.352c-2.752 2.784-4.8 5.536-6.144 8.32-1.376 2.784-2.048 5.536-2.048 8.352 0 2.752 0.672 5.216 2.048 7.296 1.344 2.080 3.072 4.48 5.12 7.296 2.048 2.752 4.096 5.216 6.144 7.264 2.016 2.112 4.384 4.512 7.136 7.296 5.44 4.192 10.24 8.672 14.304 13.568 4.096 4.832 7.84 10.752 11.264 17.696 3.392 6.944 6.112 14.912 8.16 23.968 2.048 9.024 3.072 19.072 3.072 30.208 0 9.696-0.704 18.752-2.048 27.104-1.376 8.32-3.072 15.616-5.088 21.856-2.048 6.272-5.472 12.16-10.24 17.728-4.8 5.536-11.232 10.4-19.424 14.592 1.344 0 2.72 0.32 4.096 1.024 1.344 0.672 3.072 1.056 5.12 1.056s4.064 0.32 6.112 1.024c2.048 0.704 3.744 1.056 5.12 1.056 4.096 0 8.512 0.32 13.28 1.024s9.216 1.728 13.312 3.136c4.064 1.376 7.456 3.136 10.208 5.216 2.72 2.080 4.096 5.216 4.096 9.376v2.080h-120.64c-1.344 0-8.512-0.704-21.44-2.080-12.992-1.408-26.944-5.92-41.92-13.536-15.008-7.68-28.96-19.488-41.92-35.424-12.96-16-19.424-38.56-19.424-67.744 0-9.728 1.024-18.72 3.072-27.072 2.048-8.32 4.768-16.352 8.192-23.968 3.392-7.648 7.456-14.272 12.256-19.776 4.768-5.568 10.528-10.432 17.376-14.592 4.096-4.16 9.216-7.296 15.328-9.376 6.144-2.080 11.584-3.488 16.352-4.16 4.768-0.736 9.536-1.408 14.336-2.080 4.736-0.736 8.48-1.056 11.232-1.056 1.344 0 2.368 0 3.072 0 0.672 0 1.344 0 2.048 0 0.672 0 1.696 0 3.040 0 0-5.568 0.32-10.784 1.056-15.648 0.64-4.864 2.016-10.752 4.064-17.696 2.048-6.976 5.792-13.216 11.264-18.752h-2.048c-8.192 0-20.448-1.024-36.8-3.136-16.352-2.080-32.384-6.592-48.064-13.536-15.68-6.976-29.632-17.024-41.888-30.208-12.288-13.216-18.4-31.616-18.4-55.2 0-23.648 5.408-42.048 16.352-55.232 10.88-13.216 23.52-22.912 37.824-29.184 14.304-6.24 27.904-10.080 40.896-11.456 12.928-1.376 22.112-2.080 27.584-2.080h6.144c4.064 0 8.832 0 14.304 0 5.44 0 11.552 0.704 18.4 2.080 6.784 1.376 14.304 3.136 22.464 5.216 8.192 2.080 16.384 5.216 24.544 9.376v0 0 0 0 0 0 0 0 0 0zM756.384 449.504v50.016h-79.744v81.248h-49.056v-81.248h-79.744v-50.016h79.744v-81.248h49.056v81.248h79.744zM427.232 387.008c10.88 0 20.768-1.76 29.632-5.216 8.864-3.488 16.672-8 23.52-13.536 6.784-5.568 12.256-12.192 16.352-19.808 4.096-7.648 6.144-15.616 6.144-23.968 1.344-9.728 0.32-18.752-3.072-27.072-3.424-8.352-8.544-15.328-15.328-20.864-6.848-5.536-15.36-10.4-25.568-14.56s-20.8-6.24-31.68-6.24c-12.288-1.408-23.872-1.056-34.752 1.024-10.944 2.080-20.448 5.536-28.64 10.432-8.16 4.832-14.656 11.104-19.424 18.752-4.768 7.616-7.84 16.288-9.184 26.048 0 4.16 0.32 8.32 1.024 12.48 0.672 4.192 2.048 8.672 4.096 13.568 2.016 4.832 4.384 8.992 7.136 12.48 2.72 3.456 6.144 7.296 10.24 11.456 4.064 2.784 8.48 5.92 13.28 9.376 4.768 3.456 9.504 6.272 14.304 8.352 4.768 2.080 9.856 3.456 15.328 4.16 5.44 0.704 11.584 1.728 18.4 3.136 1.344 0 2.368 0 3.072 0 0.672 0 1.344 0 2.048 0 0.672 0 1.696 0 3.072 0v0 0z" />
<glyph unicode="&#xe908;" glyph-name="socialicon-vimeo" d="M518.752 960c69.504 0 134.592-13.216 195.232-39.584 60.64-26.4 113.792-62.88 159.488-109.408 45.632-46.528 81.76-101.056 108.352-163.552 26.56-62.496 39.84-129.184 39.84-200.032 0-69.472-13.28-135.424-39.84-197.952-26.592-62.496-62.72-117.024-108.352-163.552-45.696-46.56-98.848-83.040-159.488-109.408s-125.728-39.584-195.232-39.584c-69.504 0-134.592 13.216-195.232 39.584-60.672 26.368-113.824 62.848-159.456 109.408-45.696 46.528-81.792 101.056-108.352 163.552-26.592 62.528-39.872 128.48-39.872 197.952 0 70.848 13.28 137.536 39.872 200.032 26.56 62.496 62.656 117.024 108.352 163.552 45.632 46.528 98.784 83.008 159.456 109.408 60.64 26.368 125.728 39.584 195.232 39.584v0zM749.792 547.456c6.784 38.848 0.992 66.304-17.408 82.272s-40.192 22.592-65.408 19.808c-25.248-2.784-49.76-14.272-73.6-34.368-23.872-20.16-38.528-46.88-43.936-80.224 13.6 8.32 25.184 11.776 34.752 10.4 9.504-1.376 17.024-5.568 22.464-12.48 5.44-6.976 8.192-16.352 8.192-28.128 0-11.84-3.424-24.672-10.24-38.56s-13.632-26.048-20.416-36.48c-6.848-10.4-12.992-19.456-18.4-27.072-5.472-7.648-10.592-13.92-15.36-18.752-4.768-4.896-9.184-7.296-13.28-7.296-2.752 0-5.792 2.4-9.184 7.296-3.424 4.832-6.496 11.456-9.216 19.808-2.752 8.32-5.792 18.752-9.184 31.232-3.424 12.512-7.168 26.368-11.264 41.696-4.064 16.64-7.488 35.424-10.208 56.256-2.752 20.832-6.496 40.256-11.264 58.336-4.768 18.048-11.584 32.608-20.416 43.744-8.896 11.104-21.472 14.592-37.824 10.432-16.352-2.816-32.736-10.112-49.088-21.888-16.352-11.808-31.68-24.672-45.984-38.528-14.304-13.92-30.336-31.264-48.032-52.096l18.4-27.104c9.504 6.944 17.024 12.16 22.464 15.648 5.44 3.424 11.264 5.536 17.376 6.24 6.144 0.672 10.56-1.056 13.312-5.216 4.064-4.16 9.856-17.696 17.376-40.608 7.456-22.944 15.328-48.288 23.488-76.064 8.192-27.808 16.032-54.528 23.52-80.224 7.488-25.728 13.28-43.456 17.376-53.12 4.096-6.976 9.536-14.592 16.352-22.944 6.816-8.32 14.624-15.296 23.52-20.832 8.832-5.568 18.4-8.704 28.608-9.376 10.24-0.704 20.768 2.4 31.712 9.376 10.88 8.32 27.232 22.208 49.056 41.664 21.792 19.456 44.256 43.040 67.456 70.848 23.168 27.776 44.64 59.392 64.416 94.816 19.744 35.424 33.024 72.576 39.872 111.488v0 0 0z" />
<glyph unicode="&#xe909;" glyph-name="socialicon-in" d="M518.624 960c69.504 0 134.56-13.216 195.232-39.584 60.64-26.4 113.792-62.88 159.456-109.408s81.792-101.056 108.352-163.552c26.592-62.496 39.872-129.184 39.872-200.032 0-69.472-13.28-135.424-39.872-197.952-26.56-62.496-62.688-117.024-108.352-163.552-45.664-46.56-98.816-83.040-159.456-109.408-60.672-26.368-125.728-39.584-195.232-39.584s-134.624 13.216-195.264 39.584c-60.64 26.368-113.792 62.848-159.456 109.408-45.664 46.528-81.76 101.056-108.352 163.552-26.56 62.528-39.872 128.48-39.872 197.952 0 70.848 13.312 137.536 39.872 200.032 26.592 62.496 62.688 117.024 108.352 163.552s98.816 83.008 159.456 109.408c60.64 26.368 125.76 39.584 195.264 39.584v0zM395.936 236.96v333.408h-102.208v-333.408h102.208zM344.832 609.952c8.192 0 15.648 1.376 22.496 4.16 6.816 2.784 12.576 6.592 17.376 11.456 4.768 4.864 8.192 10.432 10.24 16.672 2.016 6.24 3.040 12.832 3.040 19.808 0 8.32-1.024 15.616-3.040 21.888-2.048 6.24-5.472 11.424-10.24 15.616-4.8 4.16-10.56 7.616-17.376 10.4-6.848 2.784-14.304 4.192-22.496 4.192-8.16 0-15.68-1.408-22.464-4.192-6.848-2.784-12.288-6.24-16.384-10.4-4.064-4.192-7.488-9.376-10.208-15.616-2.752-6.272-4.096-13.568-4.096-21.888 0-6.976 1.024-13.568 3.072-19.808s5.44-11.808 10.24-16.672c4.736-4.864 10.528-8.672 17.376-11.456 6.784-2.784 14.304-4.16 22.464-4.16v0zM768.032 236.96v195.872c0 25.024-3.072 46.528-9.216 64.608-6.112 18.016-14.304 32.96-24.512 44.8-10.24 11.776-22.496 20.48-36.8 26.048-14.304 5.536-30.336 8.32-48.032 8.32-13.664 0-25.92-1.76-36.8-5.216-10.944-3.488-20.448-8-28.64-13.536-8.16-5.568-15.328-11.456-21.472-17.696-6.112-6.272-10.56-12.192-13.28-17.728h-2.048l-4.096 47.936h-89.952c1.344-8.352 2.048-16.352 2.048-23.968 0-7.648 0-16 0-24.992 0-9.056 0.32-18.432 1.024-28.16 0.672-9.728 1.024-19.456 1.024-29.152v-227.136h100.192v191.712c0 2.784 0.288 5.216 0.992 7.296 0.672 2.080 1.056 4.16 1.056 6.24s0.288 4.16 0.992 6.24c0.672 2.112 1.024 3.84 1.024 5.216 1.344 5.536 3.744 10.432 7.168 14.592 3.392 4.16 7.168 8.352 11.232 12.512 4.096 4.16 8.864 7.296 14.336 9.376 5.408 2.080 12.256 3.104 20.416 3.104 8.192 0 15.648-1.76 22.496-5.184 6.816-3.488 12.288-8.352 16.352-14.592 4.096-6.24 7.168-13.92 9.216-22.912 2.048-9.056 3.072-19.104 3.072-30.24v-183.36h102.208z" />
<glyph unicode="&#xe90a;" glyph-name="socialicon-twitter" d="M519.104 960c69.504 0 134.592-13.216 195.232-39.584 60.64-26.4 113.792-62.88 159.488-109.408 45.632-46.528 81.76-101.056 108.352-163.552 26.56-62.496 39.872-129.184 39.872-200.032 0-69.472-13.312-135.424-39.872-197.952-26.592-62.496-62.72-117.024-108.352-163.552-45.696-46.56-98.848-83.040-159.488-109.408s-125.728-39.584-195.232-39.584c-69.504 0-134.592 13.216-195.232 39.584-60.672 26.368-113.824 62.848-159.456 109.408-45.696 46.528-81.792 101.056-108.352 163.552-26.592 62.528-39.872 128.48-39.872 197.952 0 70.848 13.28 137.536 39.872 200.032 26.56 62.496 62.656 117.024 108.352 163.552 45.632 46.528 98.784 83.008 159.456 109.408 60.64 26.368 125.728 39.584 195.232 39.584v0zM723.552 541.184c4.096 2.784 8.512 6.272 13.28 10.432s9.216 8.32 13.312 12.48c4.064 4.192 8.16 8.672 12.256 13.568 4.096 4.832 7.456 10.048 10.208 15.616-4.096-2.784-8.512-4.896-13.28-6.24-4.8-1.408-9.536-2.816-14.304-4.192-4.8-1.376-9.568-2.432-14.304-3.104-4.8-0.736-9.92-1.76-15.36-3.136 5.44 2.784 10.56 6.24 15.36 10.432 4.736 4.16 8.832 8.64 12.256 13.536 3.392 4.832 6.464 10.048 9.184 15.616 2.72 5.536 5.44 11.104 8.192 16.672-5.472-2.784-10.56-5.568-15.328-8.32-4.8-2.816-9.92-5.216-15.328-7.296-5.472-2.080-10.944-3.84-16.352-5.216-5.472-1.408-10.944-2.784-16.352-4.16-4.096 5.536-8.896 10.048-14.336 13.536-5.44 3.456-11.232 6.56-17.376 9.376-6.112 2.784-12.608 5.216-19.424 7.296s-13.632 3.136-20.448 3.136c-13.632 0-26.56-2.816-38.848-8.352-12.256-5.568-22.816-12.864-31.68-21.888s-16.032-19.776-21.472-32.288c-5.44-12.512-8.16-25.696-8.16-39.584 0-1.408 0-3.136 0-5.216s0.32-4.16 1.024-6.24c0.672-2.080 1.024-4.16 1.024-6.24 0-2.112 0-3.84 0-5.216-20.448 1.376-40.224 4.832-59.296 10.4-19.104 5.536-37.152 12.832-54.176 21.888-17.056 9.024-33.056 19.808-48.032 32.288-15.008 12.512-28.64 26.368-40.896 41.696-2.752-4.192-4.8-8.352-6.144-12.512-1.376-4.16-2.752-8.352-4.096-12.512s-2.368-8.32-3.040-12.48c-0.704-4.192-1.024-9.056-1.024-14.592 0-8.352 1.024-16.672 3.072-25.024 2.016-8.32 5.088-15.968 9.184-22.912 4.096-6.976 8.864-13.536 14.304-19.808 5.44-6.24 11.584-11.424 18.4-15.616-4.096 0-8.16 0.32-12.256 1.056-4.096 0.672-8.192 1.728-12.256 3.136-4.096 1.344-7.872 2.752-11.264 4.16-3.424 1.376-6.464 2.752-9.184 4.16 0-12.512 2.048-24.32 6.112-35.424 4.096-11.136 9.536-21.184 16.384-30.208 6.784-9.056 14.976-16.352 24.512-21.888 9.536-5.568 19.744-9.728 30.688-12.512-1.376 0-3.072-0.352-5.12-1.024-2.048-0.736-4.096-1.056-6.144-1.056s-4.448-0.352-7.168-1.024c-2.72-0.736-4.768-1.056-6.112-1.056-1.376 0-3.072 0.32-5.12 1.056-2.048 0.672-3.776 1.024-5.12 1.024-1.376 0-2.72 0-4.064 0-1.376 0-2.752 0-4.096 0 2.72-9.728 7.136-18.752 13.28-27.072 6.144-8.352 13.28-15.648 21.472-21.888s17.024-11.136 26.56-14.592c9.536-3.488 19.744-5.184 30.688-5.184-8.192-6.976-17.056-13.248-26.592-18.752-9.536-5.568-19.776-10.112-30.656-13.568-10.944-3.488-21.824-6.24-32.704-8.32-10.944-2.080-21.824-3.136-32.736-3.136-2.72 0-5.088 0-7.136 0s-4.096 0-6.144 0c-2.048 0-3.744 0-5.088 0-1.376 0-3.424 0.672-6.144 2.080 10.88-8.32 22.496-15.296 34.752-20.832 12.256-5.568 24.544-10.080 36.8-13.536 12.256-3.488 25.216-6.272 38.848-8.352 13.6-2.080 27.232-3.104 40.896-3.104 46.304 0 86.88 8.64 121.632 26.048 34.752 17.344 64.032 39.904 87.904 67.712 23.84 27.776 41.92 58.656 54.176 92.704s18.4 67.744 18.4 101.088c0 2.752 0 4.48 0 5.184s0 1.728 0 3.136c0 1.376 0 2.752 0 4.16v0 0 0 0 0 0 0z" />
<glyph unicode="&#xe90b;" glyph-name="socialicon-fb" d="M518.656 960c69.504 0 134.56-13.216 195.232-39.584 60.64-26.4 113.792-62.88 159.456-109.408s81.792-101.056 108.352-163.552c26.592-62.496 39.872-129.184 39.872-200.032 0-69.472-13.28-135.424-39.872-197.952-26.56-62.496-62.688-117.024-108.352-163.552-45.664-46.56-98.816-83.040-159.456-109.408-60.672-26.368-125.728-39.584-195.232-39.584s-134.624 13.216-195.232 39.584c-60.672 26.368-113.824 62.848-159.488 109.408-45.664 46.528-81.76 101.056-108.352 163.552-26.56 62.528-39.872 128.48-39.872 197.952 0 70.848 13.312 137.536 39.872 200.032 26.592 62.496 62.688 117.024 108.352 163.552s98.816 83.008 159.488 109.408c60.608 26.368 125.728 39.584 195.232 39.584v0zM637.216 605.792v85.408h-75.648c-15.008 0-29.312-3.104-42.912-9.376-13.632-6.24-25.248-14.944-34.752-26.048-9.568-11.136-17.056-23.936-22.496-38.528-5.472-14.592-8.192-30.208-8.192-46.88v-47.936h-79.712v-79.168h79.712v-237.536h89.952v237.536h94.048v79.168h-94.048v56.256c0 4.16 0.672 8 2.048 11.456 1.344 3.456 2.72 6.272 4.096 8.352 1.344 2.080 3.392 3.808 6.144 5.216 2.72 1.344 4.736 2.080 6.112 2.080h75.648z" />
<glyph unicode="&#xe90c;" glyph-name="phoneicon" d="M726.272 959.488c28.672 0 53.184-10.368 73.536-30.976 20.288-20.672 30.464-45.376 30.464-74.048v-814.976c0-28.672-10.176-53.184-30.464-73.472-20.352-20.352-44.864-30.528-73.536-30.528h-398.016c-28.672 0-53.12 10.176-73.472 30.528-20.352 20.288-30.528 44.8-30.528 73.472v814.976c0 28.672 10.176 53.376 30.528 74.048 20.352 20.608 44.8 30.976 73.472 30.976h398.016zM527.296-22.528c19.968 0 37.12 4.992 51.456 15.040 14.336 9.984 21.504 22.336 21.504 36.992s-7.168 27.008-21.504 36.992c-14.336 9.984-31.488 14.976-51.456 14.976-20.032 0-37.184-4.992-51.52-14.976s-21.504-22.336-21.504-36.992c0-14.656 7.168-27.008 21.504-36.992 14.336-10.048 31.488-15.040 51.52-15.040v0zM746.304 133.504v689.984h-438.016v-689.984h438.016z" />
<glyph unicode="&#xe90d;" glyph-name="emailicon" d="M35.694 713.362c-14.482 7.607-25.307 20.187-32.549 37.669-7.241 17.554 2.414 26.331 29.111 26.331h989.696c26.697 0 36.425-8.777 29.184-26.331-7.241-17.481-18.139-30.062-32.549-37.669-6.875-3.877-32.987-17.92-78.336-42.277-45.349-24.43-94.062-50.542-146.286-78.336-52.151-27.794-99.986-53.321-143.433-76.581-43.374-23.259-66.999-35.986-70.802-38.254-6.875-3.803-14.921-6.656-24.064-8.558s-18.651-2.853-28.526-2.853c-9.947 0-19.456 0.951-28.599 2.853s-17.115 4.754-23.991 8.558c-3.803 1.536-27.429 14.117-70.875 37.742-43.374 23.552-91.209 49.298-143.433 77.093-52.151 27.794-100.937 53.906-146.286 78.336-45.349 24.357-71.387 38.4-78.263 42.277v0zM1031.095 596.773c11.483 6.071 18.139 6.875 20.041 2.267 1.902-4.535 2.853-9.874 2.853-16.018 0-2.267 0-25.893 0-70.802 0-44.983 0-93.915 0-146.871s0-123.246 0-210.871c0-12.215-6.51-24.576-19.456-37.157s-25.893-18.871-38.839-18.871h-937.106c-13.019 0-25.966 6.29-38.912 18.871s-19.383 24.942-19.383 37.157c0 87.625 0 157.915 0 210.871s0 101.888 0 146.871c0 44.91 0 68.901 0 71.973 0 5.339 0.951 10.313 2.853 14.848 1.902 4.608 8.558 3.803 19.968-2.267 8.411-4.608 35.621-18.871 81.701-42.862s95.598-49.883 148.626-77.751c52.882-27.794 101.669-53.321 146.286-76.507 44.544-23.259 69.486-36.425 74.825-39.424 9.874-4.608 18.651-7.68 26.258-9.143 7.607-1.536 16.384-2.341 26.331-2.341 9.874 0 18.651 0.805 26.258 2.341 7.607 1.463 16.384 4.535 26.331 9.143 5.266 2.999 30.281 16.165 74.825 39.424 44.544 23.186 93.33 48.713 146.286 76.507 52.955 27.867 102.473 53.76 148.553 77.751s73.362 38.254 81.701 42.862v0 0 0z" />
<glyph unicode="&#xe90e;" glyph-name="quoteicon" d="M1024 468.48v0 0 0l-163.84-450.56h-245.76l163.84 450.56h-204.8v409.6h450.56v-409.6zM286.72 17.92h-245.76l163.84 450.56h-204.8v409.6h450.56v-409.6l-163.84-450.56z" />
<glyph unicode="&#xe90f;" glyph-name="arrowright" d="M251.585 889.503l420.887-438.158-420.887-438.181c-8.442-7.669-12.675-17.089-12.675-28.24s4.233-20.935 12.675-29.423c7.691-7.669 17.135-11.514 28.262-11.514 11.15 0 20.571 3.846 28.24 11.514l462.393 467.012c8.465 8.465 12.698 18.273 12.698 29.4 0 11.15-4.233 20.571-12.698 28.262l-462.393 466.989c-7.669 8.465-17.089 12.675-28.24 12.675-11.127 0-20.571-4.21-28.262-12.675-8.442-7.669-12.675-17.294-12.675-28.831 0-11.514 4.233-21.117 12.675-28.831v0z" />
<glyph unicode="&#xe910;" glyph-name="arrowleft" d="M770.458 14.711l-420.887 438.158 420.887 438.181c8.442 7.669 12.675 17.089 12.675 28.24s-4.233 20.935-12.675 29.423c-7.691 7.669-17.112 11.514-28.262 11.514s-20.571-3.846-28.24-11.514l-462.393-467.012c-8.465-8.465-12.675-18.273-12.675-29.4 0-11.15 4.21-20.571 12.675-28.262l462.393-466.99c7.669-8.465 17.089-12.675 28.24-12.675s20.571 4.21 28.262 12.675c8.442 7.669 12.675 17.294 12.675 28.831 0 11.514-4.233 21.117-12.675 28.831v0z" />
<glyph unicode="&#xe911;" glyph-name="arrowdown" d="M1002.575 651.461l-501.287-501.287-501.287 501.287 111.38 111.38 389.908-389.908 389.908 389.908 111.38-111.38z" />
<glyph unicode="&#xe912;" glyph-name="git-branch" horiz-adv-x="645" d="M512 768c-71.004 0-128-56.996-128-128 0-47.002 25.999-88.003 64-109.998v-18.002c0-64-64-128-128-128-53.002 0-94.996-10.998-128-29v303.002c38.001 21.996 64 62.996 64 109.998 0 71.004-56.996 128-128 128s-128-56.996-128-128c0-47.002 25.999-88.003 64-109.998v-419c-38.001-21.996-64-62.996-64-109.998 0-71.004 56.996-128 128-128s128 56.996 128 128c0 33.997-13.005 64-33.997 86.999 18.995 22.999 48.998 41.001 97.997 41.001 128 0 256 128 256 256v18.002c38.001 21.996 64 62.996 64 109.998 0 71.004-56.996 128-128 128zM128 832c35 0 64-29 64-64s-29-64-64-64-64 29-64 64 29 64 64 64zM128 64c-35 0-64 29-64 64s29 64 64 64 64-29 64-64-29-64-64-64zM512 576c-35 0-64 29-64 64s29 64 64 64 64-29 64-64-29-64-64-64z" />
<glyph unicode="&#xe913;" glyph-name="home" d="M192 384l64-384h192v320h128v-320h192l64 384-320 320-320-320zM832 576v256h-128l0.307-128.307-192.307 192.307-512-512h128l384 384 384-384h128l-192 192z" />
<glyph unicode="&#xe914;" glyph-name="person" horiz-adv-x="512" d="M448 768c0 106.004-85.934 192-192 192s-192-85.996-192-192c0-106.066 85.934-192 192-192s192 85.934 192 192zM256 640c-70.656 0-128 57.344-128 128s57.344 128 128 128c70.625 0 128-57.344 128-128s-57.375-128-128-128zM384 576h-256c-70.656 0-128-57.344-128-128v-128c0-70.625 57.344-128 128-128v-256h256v256c70.625 0 128 57.375 128 128v128c0 70.656-57.375 128-128 128zM448 320c0-35.379-28.621-64-64-64v128h-64v-384h-128v384h-64v-128c-35.308 0-64 28.621-64 64v128c0 35.308 28.692 64 64 64h256c35.379 0 64-28.692 64-64v-128z" />
<glyph unicode="&#xe915;" glyph-name="search" horiz-adv-x="973" d="M960 128l-249.129 249.129c35.564 58.061 57.129 125.716 57.129 198.871 0 212.029-172.001 384-384 384-212.029 0-384-171.971-384-384 0-211.999 171.971-384 384-384 73.155 0 140.81 21.565 198.871 56.996l249.129-248.996c17.5-17.5 46.5-17.377 64 0l64 64c17.5 17.5 17.5 46.5 0 64zM384 320c-141.373 0-256 114.627-256 256s114.627 256 256 256 256-114.627 256-256-114.627-256-256-256z" />
</font>
</defs>
</svg>
